<?xml version="1.0" encoding="UTF-8"?>
<svg viewBox="0 0 1600 1200" xmlns="http://www.w3.org/2000/svg">
 <g fill-rule="evenodd" opacity=".3">
  <g fill="#fff">
   <path d="m1555.2 761.42c-4.8569 0.54279-5.0944-4.6523-9.9576-4.1167v-26.804c11.578 0.045837 10.189 16.202 9.9576 30.92z"/>
   <path d="m1545.2 631.55c-5.8132-2.3895-8.9474-8.1168-16.58-8.2508-1.2896-13.971 2.2616-21.919 1.6621-35.04 10.349 7.7362 16.771 20.375 14.917 43.291z"/>
   <path d="m1530.3 827.4c-11.235-1.7622-6.6345-23.741-6.6345-37.109v-45.35c19.389 9.3048 6.1305 58.446 6.6345 82.459z"/>
   <path d="m1515.4 619.18c-5.5144-3.4505-8.9792-9.4562-14.924-12.371 1.2156-15.25-1.8544-25.182-1.6621-39.168 19.483-0.15503 17.478 26.381 16.586 51.538z"/>
   <path d="m1512.1 837.7c-2.3065 8.1098-11.148-8.8253-16.586-10.306-1.5365-37.261-2.0852-75.741-3.3138-113.38 31.541 10.263 12.181 83.801 19.9 123.69z"/>
   <path d="m1480.6 639.8v57.72c-7.0127-2.2768-15.784-2.3755-24.882-2.0654-1.0908-18.56 2.2008-42.586-1.6554-57.717 7.2825-5.5369 16.874 3.7078 26.537 2.0618z"/>
   <path d="m1478.9 806.78h-23.22v-88.64c9.0403-0.93042 13.634 3.6761 23.22 2.0583 0.28894 21.154-0.2052 58.711 0 86.582z"/>
   <path d="m1472.3 555.27v47.415c-7.3752-3.1967-10.452-11.74-18.241-14.429-1.0328-14.528-1.0908-30.258-3.3137-43.291 6.1403 4.7263 14.812 6.3229 21.555 10.306z"/>
   <path d="m1435.8 561.46c-6.9038-1.0327-9.6755-7.2111-16.586-8.2438 1.1166-10.323-1.5367-15.959-1.6553-24.742 14.237 0.85644 21.632 10.228 18.241 32.986z"/>
  </g>
  <path d="m1414.2 1083c0.30786 1.7551-0.6449 1.9491-1.6555 2.0584-35.991 0.17969-79.512 0.15857-114.44 2.0653-13.936 0.76489-32.462 8.3918-39.806-8.2472 46.992-4.8109 101.17-0.68726 150.92-2.0584 0.9303 2.9675 2.589 5.033 4.9758 6.1819z"/>
  <path d="m1412.6 619.18c-12.714 14.838-61.617 15.554-76.291 2.0618 22.116-4.8004 51.409-0.69434 76.291-2.0618z"/>
  <path d="m1397.6 1029.4c-8.88-42.713 1.6425-96.859-1.6554-146.37-5.6141-27.385-50.889-5.4595-68.001-18.553 3.7983-11.208 18.847-6.1818 29.851-6.1818 25.565 0 41.586-5.1352 46.443 20.611 4.549 24.136-1.6617 67.441-1.6617 98.953 0 19.349 3.9524 42.227-4.9757 51.538z"/>
  <path d="m1394.3 714.01c5.5627 16.445 4.084 41.645 4.9758 63.909-16.778-3.1932-35.27-4.2681-53.071-6.189 2.156-20.185-9.1044-50.918 1.662-61.844-19.306-63.359 72.801-38.596 46.433 4.1237z"/>
  <path d="m1397.6 792.35v18.553h-8.2897c-0.88855-7.9795 2.9578-10.062 1.6553-18.553 2.2106 6.1e-5 4.4304 6.1e-5 6.6344 6.1e-5z"/>
  <path d="m1381 1010.9c-5.0624-1.4873-6.0408 2.1147-9.9515 2.0652v37.102c-12.524-1.142-22.142 1.3358-33.171 2.0653 1.7484-12.473-0.41382-20.093-11.603-16.494-1.6555-28.245-2.4863-65.181-3.3206-94.822-0.3689-13.136-5.0078-27.494 4.9758-35.044 3.346 8.8923 2.2296 23.343 9.9513 26.8 1.2897 7.0983-0.92065 9.8439-6.6278 8.2472v70.084c3.6218 3.0276 9.2872-8.991 14.924-10.306 2.8939-30.067-3.5288-71.723 8.2963-90.699-0.95288-5.128-9.3098-11.634-6.6343-14.436 9.9929-0.056458 20.413-0.64154 28.196 2.0653 7.8501 30.085 4.1641 74.518 4.9662 113.37z"/>
  <path d="m1303.1 1031.5c-9.1847-3.9861-4.9307-21.327-4.9756-30.92-0.1637-37.923 2.7493-77.923 1.6553-119.56-10.545-28.122-66.631 0.37012-84.574-18.553 27.808 0.48285 82.877-15.06 91.218 16.487 0 52.24-0.62231 103.69-3.3235 152.55z"/>
  <path d="m1298.1 777.92c-9.1429-3.7396-4.9371-21.594-4.9757-30.92-0.13794-31.576 0.099487-72.245 0-105.14-7.6992-28.908-59.561-2.9253-76.291-20.615 29.261 1.431 79.201-15.793 86.242 14.433 4.4784 19.226-0.66406 51.235-1.6554 78.335-0.88538 24.044 3.2626 47.492-3.3203 63.909z"/>
  <path d="m1303.1 790.29c1.2769 9.8366-2.5952 13.273-1.6553 22.683h-11.616c-0.92712-9.4103 2.9386-12.847 1.6619-22.683h11.61z"/>
  <path d="m1289.8 949.02v82.458c-6.5925 3.4822-17.494 1.6248-26.531 2.0654 0.88867-30.501 2.4188-60.212 3.314-90.706-6.4097-0.40527-12.226-0.073914-16.586 2.0584-11.555 19.314-7.5935 57.914-8.296 90.706h-21.561v-86.582c-2.5311-9.3329 10.834 1.0961 8.296-8.2402 4.3181-12.928-9.1237-3.7853-8.296-12.371 4.8794-45.571 62.294-42.928 68.001 0-1.6361 8.2684-6.891 12.047-8.296 20.611h9.9547z"/>
  <path d="m1283.2 775.86h-64.681c-5.0624-23.018 1.7805-48.462 0-74.215-1.5912-7.4683 7.1604-2.1006 8.296-6.189-10.012-15.888 5.4377-31.488 11.604-45.349 57.447-24.463 43.867 67.053 44.781 125.75zm-23.22-111.32c-4.9885-2.0371-7.4011-7.2886-14.924-6.182-8.9987 7.3732-6.246 29.338-8.2896 45.356 13.297 7.5247 2.9257 44.454 8.2896 61.844 8.8542-0.70844 13.673 7.5459 21.561 2.0583 3.0444-43.693-11.042-62.284-6.6374-103.08z"/>
  <path d="m1266.6 767.61c-7.8887 5.4876-12.707-2.7667-21.562-2.0583-5.3638-17.39 5.0078-54.319-8.2896-61.844 2.0435-16.019-0.70911-37.983 8.2896-45.356 7.5261-1.1066 9.9386 4.1448 14.924 6.182-4.4015 40.792 9.6852 59.384 6.6376 103.08z" fill="#fff"/>
  <path d="m1195.3 1039.7c-9.4349-48.049 1.7614-121.75-9.9514-166.98-27.137-5.6462-64.174 11.345-79.605-6.182 23.409-5.9527 53.414-3.6971 81.267-4.1236 17.324 11.448 11.604 57.851 11.604 101.01-1.22e-4 28.541 2.5696 57.872-3.314 76.273z"/>
  <path d="m1193.6 532.6c-7.4683-3.6901-6.2045-27.279-6.6343-39.168-1.2704-34.684 3.8978-80.065-8.296-103.07-27.124-2.6962-62.971 5.4347-84.58-4.1237 0.62561-11.176 13.201-5.9246 18.247-6.1818 30.143-1.5367 78.065-8.9241 84.58 20.615 7.693 34.871-3.2017 99.436-3.3171 131.93z"/>
  <path d="m1197 631.55c-2.1943 48.81 4.3918 108.53-3.3138 150.48-9.2233-4.2822-4.9373-21.228-4.9823-30.92-0.15723-36.637-2.576-77.676-1.6553-115.44-13.817-22.691-63.41-0.8988-84.58-14.433 26.191-6.3688 79.711-11.201 94.532 10.306z"/>
  <path d="m1192 792.35c1.296 8.4869-2.5504 10.573-1.6617 18.553h-8.2897v-18.553c3.314 6.1e-5 6.631 6.1e-5 9.9514 6.1e-5z"/>
  <path d="m1188.7 295.53c-1.0842 11.708 2.1815 28.823-1.6553 37.106h-3.3203c-7.3945-4.5501-1.3538-25.803-3.3138-37.106h8.2894z"/>
  <path d="m1188.7 551.15v20.615h-8.2897v-22.673c4.6871-1.7023 4.2956 2.9076 8.2897 2.0583z"/>
  <path d="m1175.4 1043.8h-6.6343c-4.2924-8.4128 3.0092-26.867 3.3203-41.226 0.44604-20.59-5.7842-41.543-6.6343-59.786-36.418 3.1334-25.238 60.674-28.196 101.01-13.134-3.6056-3.5835-35.403-23.22-30.92-4.5168 7.7856 5.8965 25.545 3.3203 30.92-12.069 1.9491-6.0536-18.585-13.272-22.676 2.2168-27.487-5.6526-67.501 6.6343-82.459-20.622-41.779 37.489-63.832 61.367-39.168 2.2875 13.404 10.019 25.884 3.314 39.168 12.656 23.445 6.8171 80.08 0 105.14z"/>
  <path d="m1175.4 536.73c-9.8135-18.726 4.3661-67.275-9.9514-80.4 1.2031-4.6946 1.4789-10.531 3.314-14.433-3.9717-30.606-44.111-25.954-58.047-16.491 1.8927-30.427 60.972-21.302 64.681 6.1854-1.1678 33.838 7.385 77.278 0.003296 105.14z"/>
  <path d="m1173.7 773.79c-6.2974-12.776-3.7471-36.566-4.9756-55.655-3.545-7.2675-16.409-2.9606-24.875-4.1237-10.596 7.4401-5.4153 34.494-6.6343 53.597 3.439 4.6594 14.385-0.014038 16.586 6.1819-8.0008 13.707-32.581-0.84595-49.757 4.1307v-78.338c-1.3538-7.8737 3.5353-7.9864 6.6343-10.313-0.34973-3.884-6.6471-10.711-3.314-12.364 4.8795-14.951 13.622-26.25 24.875-28.869 57.065-13.27 48.397 68.473 41.461 125.75z"/>
  <path d="m1087.5 85.261v6.1819c1.7035 6.9256-5.1554 3.2108-8.2897 4.1236 2.2231 54.266 4.2732 108.76 6.6343 162.86-7.5743 2.9535-4.3181 19.374-9.9579 24.735-12.774-11.733 1.0779-22.994 3.3204-32.978 4.7255-21.027-6.4098-48.014-1.6554-74.215h-28.202c-1.0586-7.6199 2.1494-20.537-1.6553-24.735 6.1145-4.7721 19.322-0.72252 28.189-2.0653 1.2288-16.639-2.6947-26.885-1.6553-43.291 0.75073-9.872-11.286-3.8416-8.2897-16.491 1.1356-8.8957 15.065-1.8926 21.561-4.1201zm-28.196 76.277c-0.23096 8.5363 11.543 2.1464 16.586 4.1201v-8.2437c-5.0431 1.9737-16.817-4.4162-16.586 4.1236z"/>
  <path d="m1077.6 1043.8c-5.8771-1.6388-3.1887-13.911-4.9821-20.611-2.6562-8.1168 7.1604-0.72241 6.6343-6.1891-1.8094-43.795-3.1697-88.14-4.9757-131.94-13.621-23.61-65.069-0.20795-86.242-14.429 7.3754-10.82 23.602-6.1889 38.147-6.1889h41.461c3.5096 5.2654 8.1453 9.1143 13.265 12.371-2.6434 54.411 14.061 127.08-3.3076 166.98z"/>
  <path d="m1080.9 536.73c-14.148-9.5478-8.2897-39.738-8.2897-63.909v-72.153c-17.57-25.57-79.216 3.6443-99.508-18.553 32.292 1.0926 92.456-14.602 109.46 12.371 1.1744 49.55-2.762 92.76-1.6584 142.24z"/>
  <path d="m1080.9 58.461c-2.0564 7.8067-21.805 4.4232-26.53 2.0583v-4.1236c2.1172-9.0403 17.349-1.7869 24.875-4.1201-0.14111 2.9288-0.27258 5.8401 1.6553 6.1855z"/>
  <path d="m1075.9 782.04c-7.7058-38.522-1.1293-94.794-3.314-140.18-13.121-28.154-68.245-1.2371-89.556-14.429 4.1609-11.053 24.593-6.1854 38.147-6.1854 28.536 0 53.151-3.0733 59.699 20.615-1.0779 44.549 1.572 97.23-4.9756 140.18z"/>
  <path d="m1075.9 157.41v8.2437c-5.0431-1.9772-16.817 4.4127-16.586-4.1201-0.23108-8.5398 11.543-2.1499 16.586-4.1236z" fill="#fff"/>
  <path d="m1070.9 353.26c-33.152 7.6587-78.466 6.6824-109.46 0-9.7878-2.8196 0.51965 7.9829-6.6343 6.1819-43.36 7.8278-94.413-15.613-122.73 6.1819-24.731-5.9528-59.962 11.87-72.97-6.1819 91.487-20.414 207.92-20.223 313.45-16.491 0.52918 4.7792-0.26636 7.916-1.6619 10.309z"/>
  <path d="m1070.9 293.47c-62.477 5.5334-145.62 9.3787-205.65 4.1237 21.167-14.228 60.533-5.8366 91.218-8.2437 4.5747-35.245-2.3868-73.986 0-113.38-1.7355-6.7741-17.988 4.4937-14.924-8.2473-3.1342-12.826 8.7227-7.0173 14.924-8.2472-4.3052-18.007 1.9666-49.173-4.9821-63.902 4.7672-2.4036 18.802-4.0179 19.906-4.1236 1.803 8.427-1.774 10.165-4.9756 12.371 2.342 59.62 4.4112 119.58 6.6343 179.35h96.191c-1.3698 5.8224 2.3388 5.3396 1.6586 10.306z"/>
  <path d="m1069.3 571.77h-6.6343c1.3216-9.3434-0.9657-23.184 4.9757-26.797 6.1433 0.68726 3.6443 22.846 1.6586 26.797z"/>
  <path d="m1070.9 796.47v18.553h-8.2897v-18.553h8.2897z"/>
  <path d="m1062.6 1041.8c-8.2576-21.341-3.747-58.566-6.6342-86.582h-11.604c-2.6371 24.89-3.2401 52.317-3.3203 80.397 0.032104 6.1537 12.293-2.9043 9.9513 6.189-15.113 8.9626-40.845-4.0461-63.022 0 3.4455-32.362-9.5118-74.592 4.9757-94.83 2.6562-8.1169-7.1603-0.71545-6.6279-6.182 1.9795-52.324 71.267-54.397 77.946-10.313 3.1216 20.66 3.5098 78.3-1.6649 111.32z"/>
  <path d="m1054.3 544.97c-8.8862 2.7949-5.1394-10.108-9.9514-12.371-7.3882 0.44763-7.4074 10.041-11.61 14.433h-18.247c-0.88861-8.5186-2.4316-16.223-3.3139-24.738h-18.247v-20.615h63.022c3.3525-12.769-8.6167-33.609 3.314-37.109 9.2423 24.347 4.5328 62.136-4.9662 80.4z"/>
  <path d="m1059.3 784.1c-7.5614-3.7993-6.108-22.275-6.6278-35.044-0.36255-8.9063 0.27588-18.683 0-26.8-18.953 3.2424-12.338 38.265-14.924 61.844h-51.409c1.1965-23.48-2.7333-40.588-1.6681-63.909-5.1554-8.0182-16.079-8.8676-16.579-22.676 14.818-5.3608 13.403 9.4526 24.875 8.2472-1.1709 7.641 2.8327 8.8464 1.6618 16.494 5.3832-1.1984 7.7121 1.3958 11.61 2.0582 5.0687-10.499-2.1109-23.438 0-37.102-11.565-1.1631-9.9194 9.8791-21.568 4.1166 0.051331-39.414 40.213-53.893 69.663-37.102 12.839 19.163 9.9418 96.031 4.9661 129.87z"/>
  <path d="m1059.3 448.08c-9.5729 2.2874-7.8629-9.4667-11.604-14.429-11.202-13.992-34.435-11.098-48.095-2.0618 10.5-32.157 67.501-23.276 59.699 16.491z"/>
  <path d="m1044.4 50.217v12.367c-7.7762-1.3322-19.861 2.6962-24.882-2.0618v-4.1236c3.7983-7.6481 16.794-3.8699 24.882-6.1819z"/>
  <path d="m1044.4 328.51h-9.9578c0.81482-6.5062-2.99-7.278-1.6554-14.433h-13.272c-1.9409-3.0839-2.0628-8.4306-4.9757-10.306 6.1146-4.7686 19.322-0.71899 28.189-2.0583-1.2543 11.194 2.6372 15.973 1.6714 26.797z"/>
  <path d="m1034.4 155.35c0.88867 7.9759-2.9578 10.062-1.6553 18.553h-19.906v-18.553h21.561z"/>
  <path d="m1009.6 56.396c-2.0628 7.8102-21.812 4.4302-26.534 2.0653v-4.1236c2.1172-9.0438 17.349-1.794 24.882-4.1237-0.15393 2.9288-0.27899 5.8401 1.6522 6.1819z"/>
  <path d="m999.6 153.29c1.296 9.1742-2.2103 12.371-1.6618 20.615h-18.247c1.171-6.7917 2.6691-13.178 3.3204-20.615h16.589z"/>
  <path d="m989.65 456.33c-2.1365 6.9608 0.3689 19.695-6.6279 20.615-6.8684 0.29254-1.7291-14.345-3.3204-20.615h9.9482z"/>
  <path d="m971.41 54.338v10.306c-7.7699-1.3322-19.855 2.6962-24.875-2.0618v-4.1201c2.1173-9.0438 17.356-1.7904 24.875-4.1236z"/>
  <path d="m963.11 547.03c-9.8134-44.07 7.5454-93.494-1.6553-131.94-10.038-41.948-69.881-2.7667-91.218-30.924 33.178-2.0688 86.605-11.454 99.508 18.553v76.273c-6.1e-5 25.066 4.2731 53.346-6.6343 68.033z"/>
  <path d="m969.75 1043.8c-9.9802-7.6552-7.632-29.408-8.2897-47.415-1.4338-39.182 4.084-92.785-9.9578-117.51-27.098-4.8813-61.749 9.3682-79.605-4.1237 30.929-0.64136 85.835-13.231 97.852 16.495v152.55z"/>
  <path d="m964.77 784.1c-9.021-4.0002-5.7841-27.241-6.6279-43.291-1.4468-27.385-3.6475-58.369-4.9757-88.644-4.642-5.9141-7.3689-14.214-13.272-18.556-22.226-3.299-56.083 7.8666-68.001-8.2437 27.775-0.84235 77.927-11.652 91.218 12.367-0.59344 47.44 7.9175 106.72 1.6586 146.37z"/>
  <path d="m954.82 551.15c0.099426 9.0544-0.66412 17.041-3.3203 22.68-5.8098-2.3931-3.6218-14.732-4.9693-22.68h8.2896z"/>
  <path d="m954.82 819.15h-8.2896c0.84698-9.9461-3.391-26.201 6.6342-24.742-1.158 10.376 2.8136 14.369 1.6554 24.742z"/>
  <path d="m953.17 990.25c1.203 22.109-2.7269 37.839-1.6682 59.779h-77.946c9.9579-22.662 2.8327-66.574 4.9821-98.946 2.9129-1.1842 9.7429 2.4918 9.9514-2.0654 1.1965-9.0438-5.5339-8.2402-11.61-8.2402 3.4519-56.751 81.68-52.384 72.97 14.429-11.071-10.284-9.5182-36.263-28.196-37.109-7.712 26.793-2.6497 83.794-1.6553 119.56 8.4468 2.2592 7.8887-6.6788 8.296-14.422 7.9944-1.0608 21.07 4.2045 19.9-8.2472-5.7392-6.3265-10.34 6.2982-19.9 2.0582v-28.862c9.5824-0.91974 16.987 0.86365 24.875 2.062z"/>
  <path d="m951.5 452.2c-3.917-6.122-7.0417-13.231-9.945-20.615-10.17-4.6488-26.9-9.4491-39.806-4.1236-9.0339 5.2656-7.5133 23.646-23.214 20.615 4.411-48.007 72.011-47.559 72.964 4.1237z"/>
  <path d="m949.85 540.85c-15.559 9.516-45.269 1.4485-66.336 4.1236 1.1453-15.853-2.807-25.376-1.6617-41.229h63.022c1.9827 11.969 2.8039 25.373 4.9757 37.106z"/>
  <path d="m944.87 734.63v49.473h-67.995c1.1388-25.471-2.8005-44.62-1.6618-70.091-1.5302-3.5984-5.1874-4.55-9.9514-4.1237 2.6498-3.5808 7.4684-4.4689 13.272-4.1235-14.648-58.538 68.158-75.343 64.675-10.313-16.198-4.8673-38.747-7.5247-46.437 8.2544 9.1848 13.217-2.9706 37.814 3.314 59.778 15.418-9.012 22.38-28.534 44.784-28.855z"/>
  <path d="m938.24 175.97v65.964h-44.781c1.1453-24.093-2.7942-41.867-1.6553-65.964h11.61c3.2529-2.8583-3.484-10.647-3.3204-16.494h24.882c1.4725 5.04 3.8657 8.9415 3.3203 16.494h9.9449zm-39.799 10.306c0.52612 15.148 2.5118 28.488 3.314 43.291h26.54c-1.0395-16.406 2.8744-26.652 1.6553-43.291-12.755-1.4239-17.606-0.00705-31.51 0z"/>
  <path d="m934.92 60.523c-2.0563 7.8032-21.812 4.4267-26.534 2.0618v-4.1201c2.1174-9.0473 17.349-1.794 24.875-4.1236-0.14764 2.9253-0.27283 5.8365 1.6585 6.1819z"/>
  <path d="m929.95 186.27c1.2223 16.639-2.6948 26.885-1.6553 43.291h-26.54c-0.80212-14.806-2.7878-28.143-3.314-43.291 13.904-0.00705 18.754-1.4239 31.51 0z" fill="#fff"/>
  <path d="m898.44 68.77h-26.54c-2.8937-18.031 14.529-10.799 24.882-12.371-1.2062 6.3088 2.8616 6.0621 1.6586 12.371z"/>
  <path d="m885.17 161.54v18.549h-16.586c0.88861-7.9723-2.9579-10.059-1.6554-18.549h18.241z"/>
  <path d="m876.88 462.51v24.738c-3.9972 0.84592-3.6091-3.7641-8.296-2.0618 1.2831-9.8368-2.5953-13.266-1.6554-22.676h9.9514z"/>
  <path d="m868.58 97.629c1.3538 10.612-10.506 4.8074-14.924 8.2473-1.1581 64.664 2.7749 122.99 1.6618 187.59-10.846-5.2126-6.6343-25.574-6.6343-41.229 0-23.491 0.30804-47.39-1.6618-68.029h-21.555v-20.615c7.3048-0.53223 12.826-3.2954 21.555-2.0583 5.287-31.491-8.2639-56.24-3.3138-74.215 7.3048-2.9006 4.4912 6.7846 4.9756 12.371 6.1691-0.84939 13.981-7.4049 19.896-2.0653zm-33.171 70.091c-2.5632 8.0428 14.632 10.165 11.61 0h-11.61z"/>
  <path d="m856.98 58.461v12.367c-7.7764-1.3358-19.861 2.6962-24.882-2.0618v-4.1236c3.7985-7.6481 16.794-3.8664 24.882-6.1819z"/>
  <path d="m851.99 792.35c-11.373 0.32416-6.5155-19.638-6.6279-28.862-0.48767-37.75 5.5885-109.32-8.2897-127.81-24.291-3.6726-51.804 6.9255-69.663-2.0654 24.667-4.7933 70.641-15.638 84.58 8.2472-1.3826 49.416 6.9872 107.9 6.1e-5 150.49z"/>
  <path d="m853.66 542.91c-11.716-6.9114-9.2745-28.985-9.9514-47.418-1.158-31.844-0.006409-61.925-1.6617-94.83-28.808-9.9848-65.332 13.09-87.894-2.0583 29.148-4.1448 79.486-26.282 99.508 2.0583v142.25z"/>
  <path d="m848.68 1054.2c-9.1975-5.6392-4.9756-23.949-4.9756-35.044v-117.51c-9.9802-30.205-62.583-7.419-86.242-20.618 6.291-9.7488 23.435-6.4287 36.485-6.189 27.82 0.52869 50.803 1.8785 58.047 24.742-1.1357 40.746 1.6618 78.007 1.6618 119.57 0 11.927 4.1416 29.983-4.9758 35.044z"/>
  <path d="m845.37 582.08c-7.0801-0.82123-1.5847-17.273-3.3203-24.738 12.511-3.6655 9.0211 21.806 3.3203 24.738z"/>
  <path d="m848.68 303.77c-28.661 3.5421-60.257 3.4399-89.556 6.1854-1.0906-22.014 21.991-14.429 36.485-14.429h48.095c1.6683 2.7386 1.5688 7.6693 4.9756 8.2438z"/>
  <path d="m847.02 167.72c3.0188 10.165-14.173 8.0428-11.61 0h11.61z" fill="#fff"/>
  <path d="m840.38 802.65v20.618h-8.2897v-20.618h8.2897z"/>
  <path d="m838.73 509.92c4.3052 20.467-10.195 17.559-6.6343 37.109-10.208-14.718-38.445-6.2806-56.385-6.1854v-28.858c20.422-1.3993 40.813-2.8654 63.019-2.0653z"/>
  <path d="m837.08 450.15c-4.0292 3.6691-23.152-29.186-41.467-12.374-3.3075 12.381-13.666 16.001-21.561 22.68-8.6138-48.225 59.375-58.799 63.029-10.306z"/>
  <path d="m837.08 934.59c0.63202 7.6693-7.988 3.8135-8.296 10.306 0.012817 5.4876 4.6133 5.2654 6.6279 8.2543-1.0394 34.963 2.8744 63.772 1.6681 98.946-21.359 4.3845-48.961 0.99744-72.977 2.0654 2.4861-2.4108 4.0549-5.96 8.2896-6.1891 1.8159-33.475-2.6049-74.701 6.6343-98.953-4.0038-6.3334-4.8506-21.796-14.924-14.429 3.1246-41.737 72.557-49.723 72.977-1.22e-4z"/>
  <path d="m822.15 316.15v16.491c-8.5527 3.0664-8.2094-4.9201-13.265-6.1819-3.9106 2.0195-1.4918 11.895-4.9756 14.429h-3.3204c-7.0801-0.81769-1.5783-17.274-3.3138-24.735 8.2896-0.00354 16.579-0.00354 24.875-0.00354z"/>
  <path d="m818.83 64.647v12.367c-7.77-1.3322-19.861 2.6962-24.882-2.0583-1.6392-15.79 15.229-8.568 24.882-10.309z"/>
  <path d="m810.53 167.72c-1.2031 4.6911-1.4788 10.531-3.3138 14.433h-16.586v-14.433h19.9z"/>
  <path d="m780.68 83.199h-26.53v-10.306c10.125 1.5966 15.514-2.6998 24.875-2.0618-1.203 6.3018 2.8584 6.0621 1.6553 12.367z"/>
  <path d="m779.02 186.27c-7.3113-0.53221-12.826-3.2954-21.561-2.0619v-16.491h19.906c-1.3026 8.4904 2.5471 10.577 1.6553 18.553z"/>
  <path d="m770.73 472.82c1.0843 9.5865-3.8914 11.656-11.604 10.306-1.7549-10.425 4.6484-10.707 11.604-10.306z"/>
  <path d="m762.44 709.89c-3.8337 8.2827-3.6283 21.602-3.3139 35.044h-8.2928c-1.0074-13.622 2.9-21.133 1.6584-35.044h9.9483z"/>
  <path d="m760.78 953.15v55.655c-15.142-3.165-5.6655-36.936-8.2897-55.655h8.2897z"/>
  <path d="m752.49 120.31v4.1201c2.0982 8.1098-3.9106 6.1326-8.2896 6.1854-2.4799 59.447 5.4601 131.85-4.9756 181.41-32.485 0.16565-59.224 7.4719-89.559 10.306 2.5792-15.508 27.252-15.176 41.461-16.491 16.271-1.5084 31.433-4.9272 44.778-8.2472-1.2704-34.152-1.1068-70.088-3.3173-103.07h-14.927c-1.2383 25.591 2.6596 44.796 1.6588 70.091-17.507-0.45813-29.123 6.404-44.781 8.2437v-74.211c-0.24054-5.8013 4.0646-5.9493 8.2928-6.182 0.88556-7.9794-2.9609-10.066-1.6619-18.556 10.019-0.76833 18.331 0.58154 26.537 2.0618 0.90784 2.9923-1.9377 10.654 1.6585 10.306 5.5723 2.1182 2.5825-6.411 3.3171-10.306 7.0674-0.15154 11.6-3.4505 19.903-2.0618 0.96552-21.129-2.913-36.239-1.6619-57.72 10.195-2.3649 10.827 7.1652 21.568 4.1236zm-29.854 57.72c-0.19238 7.116 3.3462 9.583 9.9546 8.2438v-8.2438h-9.9546zm-16.582 18.553c-4.9789 2.742-12.688 2.0971-19.9 2.0619v61.844c7.5806-0.88116 14.061-3.1332 23.217-2.0619-1.1614-20.544-1.2833-42.389-3.3172-61.844zm-18.244-14.429c1.2928 0.45467 1.9313 1.727 1.6586 4.1201 4.7479 0.4053 9.0531 0.25375 8.2928-6.1854-2.9162 1.1877-9.7429-2.4883-9.9514 2.0654z"/>
  <path d="m745.86 83.199c-2.0594 7.8032-21.805 4.4268-26.534 2.0618v-4.1236c2.1206-9.0403 17.352-1.7904 24.875-4.1236-0.14105 2.9288-0.2757 5.8365 1.6586 6.1854z"/>
  <path d="m701.08 371.81c0.56445-19.448 28.372-15.279 41.461-12.371 4.5842 20.262-29.893 5.7414-41.461 12.371z"/>
  <path d="m739.22 561.46c-9.2392-3.306-4.8729-20.502-4.9788-28.858-0.50372-39.449-0.003296-89.786-4.9758-123.69-30.194-5.2057-64.992 18.394-84.58 0 28.401-1.7447 90.551-25.475 97.849 12.367-2.1846 45.385 4.395 101.66-3.314 140.18z"/>
  <path d="m739.22 802.65c-7.757-4.3563-6.2717-21.119-6.6341-30.92-1.2449-33.697-1.3314-72.925-3.3204-105.14-3.9202-7.4966-8.126-14.634-13.265-20.615-23.65-3.313-48.849 7.9477-64.681-4.1236 29.665-1.8221 80.282-11.839 89.559 18.556-3.2339 48.049 7.2694 100.84-1.6588 142.24z"/>
  <path d="m735.9 1058.3c-9.775-50.548 12.948-149.38-14.927-173.16-24.372-2.6929-57.43 5.417-76.291-4.1237 28.029-5.0329 88.857-15.811 96.19 18.553-1.1901 40.422 1.8447 81.063 1.6586 123.7-0.054443 13.033 3.3268 30.286-6.6309 35.037z"/>
  <path d="m732.59 178.03v8.2438c-6.6054 1.3393-10.147-1.1278-9.9546-8.2438h9.9546z" fill="#fff"/>
  <path d="m730.93 592.38c-10.895 1.1736-5.2773-18.176-6.6342-28.858 9.5503 0.50397 6.0696 17.185 6.6342 28.858z"/>
  <path d="m729.27 804.71c-0.65131 7.4331 0.61597 17.256-4.9725 18.56-6.7241 0.80011-1.8222-12.85-3.3171-18.56h8.2897z"/>
  <path d="m727.61 524.35v37.106c-12.271 1.5084-22.412 0.3736-24.875-10.309-12.034-1.2159-19.252 3.5633-29.854 4.1237v-30.92h54.73z"/>
  <path d="m724.3 796.47c-19.518-0.90216-36.922 0.82471-54.73 2.0583-1.1934-26.219 2.7365-46.072 1.6554-72.157-1.1646-7.627 7.0898-3.5527 8.2928-8.2402-5.9638-9.6641-7.2438-31.777 0-41.226-5.7521 1.7763-9.2007 6.4216-13.265 10.306-1.4052-35.488 57.049-33.944 56.388 6.1819 1.7036 6.9255-5.1553 3.2144-8.2928 4.1236 11.555 22.75 9.1396 62.856 9.9515 98.953z"/>
  <path d="m711.03 83.199v10.309c-7.7731-1.3358-19.861 2.6927-24.875-2.0618v-4.1236c2.1205-9.0438 17.352-1.7904 24.875-4.1236z"/>
  <g fill="#fff">
   <path d="m709.37 258.43c-9.1558-1.0714-15.636 1.1807-23.217 2.0619v-61.844c7.2148 0.035202 14.921 0.68019 19.9-2.0619 2.0371 19.455 2.1589 41.3 3.317 61.844z"/>
   <path d="m697.76 180.09c0.76032 6.4428-3.5416 6.5943-8.2928 6.1854 0.26941-2.3966-0.36566-3.669-1.6585-4.1201 0.2085-4.5536 7.0352-0.87766 9.9513-2.0654z"/>
  </g>
  <path d="m684.49 116.18c-6.4804 3.6514-27.641 6.848-39.802 10.306 1.203-6.3053-2.8617-6.0621-1.6586-12.371 12.977 1.7375 26.582 2.6927 41.461 2.0653z"/>
  <path d="m649.66 101.75c-1.296-16.727 12.454-14.757 23.22-16.491 10.616 17.883-13.772 11.74-23.22 16.491z"/>
  <path d="m672.88 806.78v6.1889c-14.606-4.4197-14.205 9.8228-28.196 6.182v-12.371h28.196z"/>
  <path d="m669.57 198.64c-8.6362-1.1173-12.296 3.9579-19.903 4.1236-1.1709-6.7917-2.6659-13.182-3.3171-20.615 7.9593-0.41238 12.149-5.5193 21.561-4.1237-0.55164 8.2438 2.9548 11.44 1.6587 20.615z"/>
  <path d="m661.28 711.95c-4.7608 7.8278-7.2438 18.489-8.2896 30.927-6.0313-4.8744-3.6766-20.178-4.9758-30.927h13.265z"/>
  <path d="m644.69 955.21c-1.9505 25.753 4.6902 62.175-4.9758 78.338-1.6201-23.42-5.5627-54.918-1.6585-78.338h6.6343z"/>
  <path d="m634.74 318.21c-7.5808 2.2627-12.091 8.3318-18.244 12.371-23.367-2.8056-49.901 12.015-66.339 4.1201 20.654-12.124 54.957-7.278 76.291-18.549v-101.02c-3.9266-4.7404-14.889-0.73656-21.561-2.0582v-18.556c7.3113-0.53223 12.832-3.2954 21.561-2.0583 1.2929-26.349-0.56134-48.779-4.9756-68.033 21.786-0.4335 17.551 27.769 16.586 53.6-1.649 44.017-1.1389 101.42-3.3171 140.18zm-18.244-115.44c0.91113 3.6196 13.384 4.4655 9.9514-4.1236-0.91107-3.6196-13.384-4.4655-9.9514 4.1236z"/>
  <path d="m636.4 101.75c-10.349-1.1772-16.204 3.2214-24.878 4.1236 0.68018-4.9695-3.0316-4.4796-1.6585-10.306 8.6937 0.46522 27.288-12.935 26.537 6.1819z"/>
  <path d="m633.08 565.58c-9.2392-3.5562-4.8633-20.188-4.9756-28.858-0.46521-36.196-2.313-76.174-1.6586-113.39h-67.998c0.035278 16.033 8.928 42.132 0 55.658-8.4564-3.024 0.87903-15.726-1.6617-24.735-3.8593-9.6324-6.2686-21.069-4.9725-37.109 27.647-1.364 53.235-5.2902 82.922-4.12-3.2722 51.535 7.2471 107.75-1.6553 152.55z"/>
  <path d="m633.08 802.65c-9.7107 8.5433-31.445 2.1393-46.437 4.1237-2.467 3.1262-2.6724 9.0507-3.3171 14.429-13.009-2.9182-27.916 8.8676-31.51-6.1817 4.4689-4.7512 15.995-0.72968 23.217-2.0584 5.1201-25.623-1.4789-54.506 0-82.466-0.84052-7.9089 9.9611-1.3569 9.9514-8.2402 1.8704-9.886-6.3263-7.264-8.2928-12.371-0.45557-16.371 7.6705-22.077 13.265-30.92-15.399-4.3351-16.557 18.757-26.534 14.429-1.3089-41.596 61.733-29.553 58.047 12.371-4.501 1.2724-13.159-2.6221-14.927 2.0654v6.1821c-1.3282 7.8348 7.8436 2.6221 11.61 4.1236 1.1005 23.371-2.204 52.212 1.6586 72.15h3.3171c2.6499-33.842 12.428-119.88-8.2928-136.06-22.982-5.7978-52.946 17.954-63.022-4.1202 23.207-3.8346 67.918-12.226 81.267 8.2438-2.1268 49.413 5.056 98.09 6.1e-5 144.3z"/>
  <path d="m633.08 1058.3h-61.364c-8.3762-1.5824 5.226-5.6991 3.3171-12.364-1.681-53.234-7.0513-111.79 19.903-134-19.498-0.17273-32.109 19.166-34.827 32.978-10.41-1.6918 0.73785-16.079 0-24.735 13.448-10.767 23.297-26.014 48.098-22.676 10.567 10.228 8.3891 36.298 8.2897 59.779h6.6343c8.8895-16.822-1.3892-44.792 1.6584-68.026-21.391-5.96-46.087 1.8045-67.998 2.0583 3.1022 17.911 1.4821 30.631-8.2896 37.109-3.593-12.72-0.40424-33.853-3.3171-47.415 28.231-1.3287 56.26-2.9042 86.239-2.0654-1.1195 61.865 2.82 117.44 1.6554 179.36z"/>
  <path d="m628.1 596.51c-12.293 4.7615-9.714-19.649-3.3204-20.615 2.9867 4.5396 1.4532 14.69 3.3204 20.615z"/>
  <path d="m628.1 835.64h-9.9515v-18.553h8.2929c-1.3025 8.4869 2.544 10.573 1.6586 18.553z"/>
  <path d="m626.45 198.64c3.4327 8.5891-9.0403 7.7432-9.9514 4.1236-3.4326-8.5891 9.0403-7.7433 9.9514-4.1236z" fill="#fff"/>
  <path d="m623.13 532.6c4.4945 20.019-8.0779 18.821-6.6343 35.044-12.993-1.0326-23.438 1.0997-34.827 2.0619-2.2039-15.716-0.27911-22.8 4.9758-32.978 9.9481-4.1307 22.764-4.6876 36.485-4.1272z"/>
  <path d="m621.47 458.39c-20.111-1.4204-35.991 5.1105-39.802 28.862-6.83-3.1896-7.7988-13.664-13.265-18.553 4.6003-25.697 41.095-33.373 53.068-10.309z"/>
  <path d="m609.86 124.43c-7.3978 21.041-35.905 15.846-53.071 24.738v-12.367c18.456-3.172 33.332-10.795 53.071-12.371z"/>
  <path d="m606.54 342.95v16.491c-7.4492-1.015-12.428 1.0468-18.244 2.0618v-16.491c5.8194-1.0186 10.795-3.0733 18.244-2.0619z"/>
  <path d="m601.57 110c-10.349-1.1807-16.204 3.2214-24.878 4.1201 0.46838-3.3271-1.5687-3.5492-1.6586-6.1855 3.5931-9.2764 14.571-9.3751 24.875-10.309-1.203 6.3088 2.8648 6.0691 1.6618 12.374z"/>
  <path d="m599.91 211.01c-1.9987 7.8208-14.109 3.0804-19.903 6.1854v-18.553c5.226 0.19028 12.512-7.6552 16.586-2.0619 2.3354 9.0826-5.4536 5.5828-9.9481 6.1855-1.5914 10.221 10.481 3.461 13.265 8.2437z"/>
  <path d="m575.03 495.49c-7.1603 10.341-10.089 25.944-11.61 43.295-13.724-0.12341-3.4582-30.06-6.6343-43.295 5.0078-2.7773 13.236-2.7773 18.244 0z"/>
  <path d="m571.72 219.26c-8.6329-1.1173-12.293 3.958-19.9 4.1236-1.171-6.7917-2.6658-13.185-3.3171-20.615 7.9592-0.41238 12.149-5.5193 21.561-4.1236-0.55493 8.2437 2.9514 11.44 1.6554 20.615z"/>
  <path d="m536.89 120.31c0.46844-3.3306-1.5687-3.5491-1.6586-6.1854 3.4968-8.7054 13.143-9.7734 23.22-10.306 10.391 17.305-12.383 11.849-21.562 16.491z"/>
  <path d="m548.5 1010.9c-2.714-16.547-3.3652-35.671-3.3171-55.655h9.9481c2.3869 23.466 1.8992 41.645-6.631 55.655z"/>
  <path d="m553.48 701.64c-12.367-0.43359-4.3598-26.194-6.6342-39.168 11.866 4.5642 7.1186 23.149 6.6342 39.168z"/>
  <path d="m555.13 716.07c-2.9225 17.664 1.5784 44.567-6.631 55.662-12.277-7.7785 0.53894-34.004-3.3171-51.538 4.8538 0.53583 5.0944-4.6594 9.9481-4.1235z"/>
  <path d="m548.5 140.92c-13.734 50.273 4.918 140.79-11.61 187.59h-8.2896c-1.6393-13.721 1.572-21.408 6.631-26.8v-68.026c-1.235-4.6523-9.3034-0.8071-13.269-2.0653-1.065 21.94 2.8649 37.673 1.6618 59.786-14.674-1.0644-25.43 2.7455-38.147 4.1236 1.0362-16.406-2.8808-26.652-1.6586-43.295 4.0326-2.5447 10.763-1.7376 11.61-8.2438 2.098-8.1098-3.9106-6.136-8.2929-6.1854 1.1742-7.6446-2.8326-8.8464-1.6585-16.495 7.9592-0.41586 12.146-5.5158 21.561-4.1201 1.5976 9.5443-6.862 6.5873-9.9514 10.309 0.71539 4.61 8.1742 0.8353 11.61 2.0618-1.1549 10.369 2.8135 14.369 1.6585 24.742h-9.9514v28.855c2.8391 4.7192 12.659 0.76123 18.244 2.0653-2.3996-25.88-5.1682-51.302-6.6342-78.338h23.217c3.8497-11.705 0.56781-32.277 1.6585-47.415-1.527-3.5985-5.1841-4.5501-9.9514-4.1201 2.4318-15.148 11.167-9.6676 21.561-14.433zm-26.537 80.393c2.3805 3.4857 14.481 1.6283 14.927-4.1201-4.5907 1.8504-15.565-4.2399-14.927 4.1201z"/>
  <path d="m540.2 569.71c-16.028 0.6908-23.682 11.793-41.461 10.309-1.3987-9.9461-2.2713-20.541-3.3171-30.92 11.77-1.1736 23.027-2.9923 36.485-2.0619-2.4894-15.458 0.19898-37.356-8.2896-45.349 0.85974-7.1794 9.9642-4.106 8.2896-14.436-3.593-20.682-22.8-16.438-36.485-10.306-1.0683 8.2966 2.1558 21.922-1.6586 26.8h-4.9757c-7.1251-3.5069 0.89505-25.848-11.607-22.676 1.9473-31.23 43.302-29.077 54.73-10.306 4.1641-15.236-0.83093-24.752-6.6342-32.986-20.747-1.0468-35.969 4.7686-54.73 6.1854-2.0724 15.984 4.2251 42.364-3.3171 51.538-11.093-7.5106-2.0339-40.077-4.9757-57.72 21.282 0.2291 44.8-16.844 63.022-12.367 22.293 5.4734 15.877 35.759 16.586 70.091 1.4597 6.6261-5.4666 2.8302-4.9757 8.2473 0.89166 22.243 2.4219 43.707 3.3138 65.957z"/>
  <path d="m536.89 217.2c-0.44592 5.7484-12.55 7.6093-14.927 4.1201-0.64154-8.3601 10.333-2.2697 14.927-4.1201z" fill="#fff"/>
  <path d="m526.94 1064.5h-44.778c18.315-19.825-9.4445-83.156 11.61-98.953-1.8928-7.9582-7.1476-11.729-8.2929-20.618 3.8401-6.9045 7.8758-13.569 11.61-20.618-14.773-5.2586-21.01 10.944-26.534 10.312-3.4166-18.324 16.31-23.977 28.192-20.618 18.296 5.1775 21.164 35.72 19.903 63.909h8.2897c2.7621-22.69-2.7878-52.867-3.3171-78.338-21.205 4.5642-58.175-10.464-66.34 10.312-2.6498-5.6461-3.4133-13.622-3.3139-22.684h71.312c5.0367 51.348 13.631 130.94 1.6586 177.3z"/>
  <path d="m531.91 810.9h-39.802c2.8776-30.173-8.7644-68.177 4.9756-86.582 1.7035-6.9255-5.1585-3.2073-8.2928-4.1237v-24.742c-12.393-0.289-8.6585 19.48-19.9 20.618-5.3478-22.613 35.186-54.753 51.412-22.677-0.98486-9.7662-1.357-20.301-4.9757-26.8h-49.754c-4.7544 11.268 0.83084 35.389-6.6311 43.291-10.782-3.091-2.2553-30.184-4.9725-43.291 10.336-11.49 71.95-19.853 77.946 2.0583 9.4767 34.649-7.0256 101.83-0.006348 142.25z"/>
  <path d="m528.6 336.76c1.203 6.3053-2.8648 6.0621-1.6618 12.367-22.238-2.2063-43.716 7.4895-61.364 4.1236-2.7686-12.688 8.2575-6.834 13.272-8.2472 13.448-3.7923 27.962-7.5142 44.778-8.2437 1.6586-6.1e-5 3.3172-6.1e-5 4.9758-6.1e-5z"/>
  <path d="m526.94 837.7c-11.369 3.1404-10.583-8.8323-13.269-16.494h11.61c-1.1774 7.6482 2.8328 8.8535 1.6586 16.494z"/>
  <path d="m525.28 128.55c-10.346-1.1772-16.201 3.2213-24.875 4.1236 0.46832-3.3306-1.5656-3.5492-1.6586-6.1819 3.593-9.2764 14.571-9.3751 24.878-10.306-1.2095 6.2982 2.8583 6.0586 1.6553 12.364z"/>
  <path d="m516.99 151.23v8.2402c-16.149-3.7325-34.5 13.939-43.12 0 11.96-5.7449 26.887-7.8068 43.12-8.2402z"/>
  <path d="m493.77 134.74c-10.346-1.1807-16.204 3.2249-24.875 4.1201 0.46832-3.3271-1.5688-3.5491-1.6586-6.1819 3.593-9.2799 14.571-9.3751 24.875-10.309-1.203 6.3018 2.8648 6.0621 1.6585 12.371z"/>
  <path d="m490.45 825.33c-6.663 4.7722-20.432 0.71545-29.851 2.0653-11.726-17.732-6.2814-67.772-4.9789-94.829h6.6375c8.9312 21.608-1.3827 54.485 1.6585 82.459 8.4179 3.9649 22.229 1.2334 26.534 10.306z"/>
  <path d="m483.82 237.81v10.309h-21.561v-20.615c5.7488-0.89168 17.121-5.7202 19.9 2.0618-0.22458 5.9035-11.382-1.7834-11.607 4.1236-1.0138 8.1239 9.1045 2.4213 13.268 4.1201z"/>
  <path d="m483.82 514.05c-2.034 10.528-11.51 11.807-14.927 20.618-2.2618 17.806 0.56137 41.924-6.6343 53.597-2.1205-21.207-4.9276-61.086 3.314-76.273 6.0952 0.6662 14.683-1.7622 18.247 2.0583z"/>
  <path d="m462.26 963.45c0.009613 25.436 2.0018 53.336-6.6375 68.026-2.8391-17.291-2.6562-48.634 0-65.968 2.9771 0.26446 3.5-2.52 6.6375-2.0581z"/>
  <path d="m458.94 147.11c-10.346-1.1772-16.204 3.2213-24.875 4.1272 0.46838-3.3306-1.5688-3.5492-1.6618-6.189 3.8048-9.0191 13.987-10.101 24.878-10.306-1.2031 6.3053 2.8616 6.0621 1.6585 12.367z"/>
  <path d="m437.38 815.02c-10.85-1.1138-18.879 1.2723-28.196 2.0652-2.0275-34.582 4.1737-79.403-3.3171-107.2-13.493-3.7182-1.8511 23.811-16.582 18.553-5.3671-7.1229 5.1264-29.028 11.61-35.044 11.382-0.40533 19.864 2.7949 28.196 6.189 2.2136-4.233-5.165-14.119-6.6343-20.618h-44.778c0.096222 23.487-0.53259 46.065-3.3171 65.968-8.9216-3.4893-4.9726-21.876-4.9726-35.044v-39.168c20.705-0.51453 43.854-8.5151 64.681-2.0653 7.2631 41.127 1.434 98.53 3.3107 146.36z"/>
  <path d="m429.09 823.27c-1.0522 6.9397 2.1366 19.145-1.6585 22.677-7.4908-0.9975-4.0775-15.55-6.6343-22.677h8.2928z"/>
  <path d="m422.45 377.99v18.549h-14.927v-16.491c5.4633-0.088104 8.2607-3.4786 14.927-2.0583z"/>
  <path d="m419.14 256.36c-7.0609-1.2194-10.968 1.4838-16.586 2.0618v-16.494c5.4602-0.088058 8.2576-3.4786 14.927-2.0583-0.36572 6.6366 2.9322 8.723 1.6586 16.491z"/>
  <path d="m415.82 600.63c-4.7961 8.501-18.138 17.266-29.851 10.309v-4.1237c4.6806-8.6138 18.95-5.3044 29.851-6.1855z"/>
  <path d="m407.52 538.79c-3.6508 3.7007-11.818 1.7975-16.582 4.1236-1.2287 16.332 3.5899 40.186-4.9757 47.411-3.856-15.134-0.56143-39.157-1.6585-57.724 8.7837-3.6197 20.352-3.2038 23.217 6.189z"/>
  <path d="m400.89 825.33c-9.2457 4.3104-18.138 9.0649-28.196 12.371 1.2031-6.3054-2.8583-6.0656-1.6585-12.371h29.854z"/>
  <path d="m395.92 248.12v16.491c-6.2492-1.586-7.9303 2.5164-13.268 2.0618 0.88861-7.9759-2.9611-10.062-1.6585-18.553h14.927z"/>
  <path d="m394.26 740.81c1.3313 7.1511-2.4734 7.923-1.6586 14.429h-8.2928v-14.429h9.9514z"/>
  <path d="m377.67 815.02h-4.9758c-6.5701-12.604-2.6402-47.031 1.6586-59.786 5.2676 13.404 6.0536 43.305 3.3172 59.786z"/>
  <path d="m376.02 969.63c-0.57419 18.532 2.9386 42.135-6.6342 49.48-3.8529-12.399-0.56787-33.662-1.6618-49.48h8.296z"/>
  <path d="m362.75 819.15c-9.5857-0.92328-16.993 0.86713-24.875 2.0583-2.5472-31.879 0.060974-70.165-6.6343-96.888-11.863-1.0045-7.8148 17.774-11.61 26.8-11.857-4.0815-7.0642-37.916 0-43.284 6.66-2.0301 14.552-2.527 23.217-2.0654-1.2383-8.0814-6.4707-11.201-8.2928-18.553-10.712-1.1138-25.142 2.3896-33.168-2.0654 14.613-11.123 35.667-2.4706 56.388-4.1236 1.5591 46.167 3.5449 91.791 4.9757 138.12z"/>
  <path d="m359.43 371.81c1.203 6.3088-2.8648 6.0656-1.6618 12.367-18.331 2.6363-31.214 12.05-48.095 16.491 4.1576-25.066 31.279-21.591 49.757-28.858z"/>
  <path d="m354.46 283.16v49.48c-4.8571-0.53922-5.0977 4.6593-9.9514 4.1236v-45.353c-18.164-1.2759-0.96246 41.409-11.61 49.473-6.3199-12.071-3.8528-35.065-4.9757-53.6 9.0692-1.0961 15.934-4.9308 26.537-4.1237z"/>
  <path d="m351.14 829.45v22.676h-8.2928c0.75073-9.8649-1.1998-16.375-4.9757-20.618 1.2351-4.6417 9.3002-0.80005 13.269-2.0584z"/>
  <path d="m337.87 262.55v14.433h-9.9514v-12.367c3.9074 0.045837 4.8827-3.5526 9.9514-2.0653z"/>
  <path d="m332.9 831.51c-6.7914 5.9952-13.512 12.068-26.534 10.313-1.203-6.3054 2.8615-6.0657 1.6586-12.371 9.5825-0.91632 16.99 0.86713 24.875 2.0584z"/>
  <path d="m331.24 538.79v12.364c-5.3447-0.91626-8.9859-3.9438-14.927-4.1201-3.84 8.9663-0.57416 26.772-1.6585 39.168-5.0687-1.4909-6.044 2.1076-9.9514 2.0618 0.81485-17.541 2.7397-33.701 3.3171-51.535 9.0435-0.93402 13.628 3.6724 23.22 2.0618z"/>
  <path d="m321.29 283.16c-5.0688-1.4873-6.044 2.1112-9.9514 2.0653v-12.371c7.3785-1.6142 10.603 1.942 9.9514 10.306z"/>
  <path d="m313 524.35h-3.3171c-6.1498-0.68372-3.6475-22.838-1.6585-26.796h3.3171c6.1466 0.68368 3.6476 22.842 1.6586 26.796z"/>
  <path d="m308.02 979.94v68.026c-5.3832-1.1913-7.7154 1.4028-11.607 2.0584-1.1453-25.471 2.7975-44.613 1.6554-70.084h9.9514z"/>
  <path d="m298.07 400.67c-9.2103-5.7166-4.9757-24.083-4.9757-35.044 0-43.041 2.807-89.786 1.6586-134-19.197-4.5783-28.484 22.69-41.461 12.371 0.3304-9.28 16.608-18.151 29.851-20.615 6.0857-1.1314 13.403 0.85297 19.903 0-3.192 58.03 12.486 134.28-4.9757 177.28z"/>
  <path d="m303.04 823.27c-9.1398-1.2406-4.4496-18.504-4.9757-28.862-0.73462-14.538-5.6269-33.669 1.6586-41.226 9.2039 2.5339 4.5041 22.729 4.9757 35.044 0.48441 12.699 5.89 28.883-1.6586 35.044z"/>
  <path d="m304.7 736.69c-4.687-1.6989-4.2956 2.9041-8.2897 2.0652-1.1484-14.482 2.8039-22.627 1.6554-37.109 7.0513 5.6638 5.5627 21.943 6.6343 35.044z"/>
  <path d="m289.77 295.53h-6.6343c0.56464-6.3934-3.84-9.8509 0-14.433 6.8685-0.97278 4.4079 9.6394 6.6343 14.433z"/>
  <path d="m286.46 398.61c-4.3308 17.291-23.656 15.952-34.827 24.735 0.81163-6.5061-2.99-7.278-1.6618-14.429 12.409-3.1332 22.97-8.5573 36.488-10.306z"/>
  <path d="m283.14 503.74c-10.208 3.1191-24.429 1.2442-29.851 10.309-0.070587-6.7881-2.8006-10.26-1.6586-18.556 8.6746-0.89874 14.529-5.3008 24.875-4.1201 2.7332 3.4751 3.6026 9.2623 6.6342 12.367z" fill="#fff"/>
  <path d="m281.48 200.7c1.3282 7.1547-2.4702 7.9265-1.6586 14.433-23.297-2.8442-32.132 12.29-48.098 18.556-3.8401-4.5853 0.56465-8.0428 0-14.433 13.038 4.5254 10.76-9.9919 16.582-14.433 8.2255-2.661 8.1484 4.9907 14.927 4.1236 3.5962 0.3454 0.74747-7.3098 1.6585-10.306 7.0642-1.2195 10.972 1.4838 16.589 2.0583z"/>
  <path d="m279.82 419.22v16.491h-14.927v-14.433c5.4601-0.088104 8.2576-3.4786 14.927-2.0583z"/>
  <path d="m276.51 837.7c-1.9826 7.842 4.735 26.497-4.9757 24.742-6.5412 1.2581-1.9537-11.317-3.3171-16.494-14.725-4.5642-11.812 12.804-26.534 8.2472 1.1742-7.6482-2.8327-8.8465-1.6617-16.494 12.165-1.22e-4 24.327-1.22e-4 36.488-1.22e-4z"/>
  <path d="m274.85 301.72c-5.0688-1.4908-6.044 2.1041-9.9514 2.0583-1.0811-9.5901 0.58389-15.768 8.2896-14.429-0.035278 4.8603 2.8616 6.0726 1.6618 12.371z"/>
  <path d="m269.87 625.37c1.203 6.3018-2.8616 6.0656-1.6586 12.367-8.3025-1.3886-12.836 1.9103-19.903 2.0619v-14.429h21.561z"/>
  <path d="m258.26 767.61c-1.2351 4.6453-9.3002 0.80713-13.265 2.0582-2.6082 20.128 6.2654 54.52-6.6343 61.844-2.6723-22.786-3.2978-48.116-3.3171-74.208 7.2149-0.035095 14.921-0.68018 19.903 2.0584 0.22456 3.8417 1.0875 6.8904 3.314 8.2473z"/>
  <path d="m256.6 299.65v10.306c-6.862 1.66-8.511-3.1615-8.2928-10.306h8.2928z"/>
  <path d="m238.36 1060.3c-1.7035-25.489-4.9179-70.697 1.6554-92.771 4.5715 10.002 4.3437 30.406 4.9789 47.422 0.6545 17.474 3.4198 39.168-6.6343 45.349z"/>
  <path d="m230.07 303.77v12.371c-7.1187-1.9808-9.8808 1.4591-8.2896 10.306-4.3822 0.052887-10.394-1.9244-8.2928 6.182h-16.582c-0.68013-4.9659 3.0284-4.4796 1.6553-10.306h9.9514c1.3699-5.826-2.3387-5.3396-1.6586-10.306 5.9734 0.55695 11.472 0.51462 9.9514-8.2472h13.265z"/>
  <path d="m223.44 225.44c-1.203 4.6946-1.4789 10.531-3.3171 14.433-15.44-5.4524-12.046 12.512-23.217 12.367-4.626-8.3741-5.0719-12.871 0-20.615 14 4.3527 14.658-7.8913 26.534-6.1855z"/>
  <path d="m218.46 637.74v12.371c-8.6361-1.1103-12.293 3.9579-19.903 4.1201 1.203-6.3054-2.8584-6.0621-1.6554-12.367 7.9592-0.41242 12.142-5.5158 21.558-4.1237z"/>
  <g fill="#fff">
   <path d="m213.49 709.89v14.429c-12.97 1.061-14.241 16.66-23.22 22.684-7.324-3.2706-1.4052-22.99-3.3171-32.985 8.1324-2.2699 18.982-1.1525 26.537-4.1273z"/>
   <path d="m213.49 926.34c-0.006409 18.546-8.588 26.433-13.268 39.167-1.1004 38.473 2.8359 70.69 1.6586 109.26-43.899 1.2053-92.036 5.431-132.68 4.1237-3.1439-44.881-4.2378-92.31-6.6343-138.12h18.244v121.62c4.4046-0.01416 9.4702 0.78589 11.61-2.0584 3.8657-35.051 0.5518-79.019 1.6586-117.51h14.924v117.51c2.3002 4.7017 11.546 0.77185 16.586 2.0584-1.1389-44.712 2.8006-83.1 1.6618-127.81 8.697 1.5543 22.973-3.8134 26.534 4.1237-10.949 2.8901-12.261 17.739-14.927 30.92 1.7644 4.6804 10.426 0.78589 14.927 2.0653v86.575c2.3002 4.7087 11.543 0.77185 16.582 2.0653-0.89183-44.243-2.4253-87.692-3.3171-131.94 5.274-0.31714 7.2951-4.6736 13.268-4.1307 1.1036 42.611-2.2104 90.706 1.6586 129.88 8.8928-4.7968 4.9757-29.648 4.9757-45.356v-49.473c5.0238-6.8093 13.374-9.4844 16.582-18.553-8.5431-3.0627-7.1315 6.249-14.924 4.1165v-18.553c8.2961 0.00708 16.589 0.00708 24.879 0.00708zm-71.315 57.727c-0.36571-1.6107-1.3891-2.4037-3.3172-2.0654 1.1004 22.691-2.2007 50.837 1.6586 70.091 7.2599-11.779 7.5261-53.61 1.6586-68.026z"/>
  </g>
  <path d="m206.85 573.83c-12.877 5.9846-2.9194 40.352-9.9514 53.6-8.3249-0.47583-5.3254-19.758-4.9757-30.924 0.36888-11.804-0.67371-25.704 4.9757-28.858 6.4161-1.7939 5.9028 5.0366 9.9514 6.182z"/>
  <path d="m188.61 260.49c-3.5866 1.727-5.6559 5.3396-11.61 4.1236 1.203-6.3088-2.8648-6.0656-1.6618-12.371 4.9789-6.0198 15.357-5.2796 13.272 8.2473z"/>
  <g fill="#fff">
   <path d="m145.49 349.13c0.60631-16.562 0.75711-32.552-8.2896-37.106 11.289-7.271 19.386-18.51 38.144-16.491-1.0875 13.076 2.1879 31.579-1.6585 41.229-9.0371 4.5677-18.068 9.1495-28.196 12.367z"/>
   <path d="m175.34 441.9c-9.9963 0.059906-20.419 0.64505-28.192-2.0583 0.36891-26.571-2.1077-49.61-3.3171-74.218 5.7745-13.435 20.952-15.19 28.196-26.8 7.6833 26.183 1.1453 70.042 3.3139 103.08z"/>
  </g>
  <path d="m175.34 464.57c-6.4995 4.973-12.45 10.637-19.9 14.429-1.6682-2.735-1.5687-7.6657-4.9757-8.2402 6.0087-4.7474 17.94-15.236 24.875-6.1889z"/>
  <path d="m162.07 509.92v8.2508h-13.272c3.4711-3.9368 7.9207-6.6507 13.272-8.2508z" fill="#fff"/>
  <path d="m152.12 462.51c-9.8616 5.6673-18.475 21.362-31.51 16.491 8.5944-7.2357 16.598-23.684 31.51-16.491z"/>
  <path d="m140.51 1052.1c-3.8593-19.254-0.55821-47.401-1.6586-70.091 1.9281-0.33838 2.9483 0.45477 3.3172 2.0653 5.8675 14.415 5.6013 56.247-1.6586 68.026z"/>
  <path d="m143.83 549.09c-1.7388 47.316 3.9074 103.81-13.265 131.93-11.305-1.6811-16.489 4.2471-24.878 6.189 2.5376-16.776 21.722-12.857 26.534-26.8-11.308-3.7571-4.2699-21.284-4.9725-35.047-1.3185-7.2639-7.7956 6.2419-8.2928 0-0.44592-20.939 6.1274-46.445-4.9725-57.724 8.6971-7.7361 16.496-16.6 29.848-18.549z"/>
  <path d="m77.492 891.3c-0.36574-6.6365 2.9354-8.7231 1.6586-16.494 6.7658-0.52173 8.1902-7.6834 16.586-6.182 3.8208 13.079-7.0289 21.834-18.244 22.676z"/>
  <path d="m95.733 685.15c1.3314 7.1511-2.4702 7.9301-1.6586 14.436-5.1554-1.8363-7.725-6.8903-13.265-8.2543 4.5875-2.5377 8.8767-5.4524 14.924-6.182z"/>
  <path d="m74.172 691.33c2.7076 2.8443-1.1613 14.93-1.6554 20.618-3.9523-3.3307-7.3112-7.4084-11.61-10.306 4.3052-3.5774 13.612-0.94806 13.265-10.313z"/>
  <path d="m67.538 878.93c-0.59669 8.198-1.7837 15.652-6.6343 18.56-9.3002-5.537-2.3419-18.581 6.6343-18.56z"/>
  <g fill="#fff">
   <path d="m49.294 850.07c-4.3854-20.664-3.7021-47.623-4.9757-72.15 4.1512-1.7199 6.5124-5.6533 11.61-6.1889-3.1022 26.856 10.166 65.985-6.6343 78.338z"/>
   <path d="m57.586 1074.8h-11.607c2.0532-37.606-5.1201-74.708 0-109.26 12.033 8.2825 7.5005 34.427 8.2896 53.604 0.80522 19.469 2.6467 39.52 3.3172 55.655z"/>
  </g>
  <path d="m59.245 549.09c69.788-48.976 153.5-78.994 240.48-107.2 117.51-38.1 233.75-70.176 379.79-72.149-33.13 7.0137-59.577 14.387-96.19 16.491-73.862 4.2506-145.37 33.021-213.94 51.538-70.321 18.993-137.27 41.853-200.68 68.029 13.005 0.62381 34.111-1.8116 51.412-8.2437 5.3703-1.9984 10.147-8.1592 14.927-10.313 19.162-8.6138 36.71-1.6212 59.705-6.1819 20.374-4.0426 44.515-20.118 69.653-12.371 13.535 52.095-3.1022 110.37-3.3171 164.92 24.465-3.9439 47.765-9.3434 72.974-12.367v-28.862c-3.9235-4.7404-14.885-0.73309-21.561-2.0584 0.93677-9.4139-2.9417-12.84-1.6586-22.68 11.392-0.95508 21.834-3.0945 34.827-2.0618-4.2025-25.796 3.84-75.054-14.927-78.338-11.86-2.076-23.496 18.317-18.244 41.229-34.342-12.653-13.965-71.413 23.217-49.476 3.7824-2.8548 0.61914-14.344 1.6618-20.615-19.771-0.51816-33.527 6.4356-51.412 8.2507 0.012787 19.945 1.5237 41.744-4.9758 53.597-2.714-17.922-3.3621-38.42-3.3171-59.778 24.346-4.7827 45.179-13.936 71.312-16.494-1.171 45.434 2.7654 84.52 1.6586 129.87 1.7035 6.9291-5.1553 3.2108-8.2928 4.1236 1.3923 13.39 0.96243 29.038 3.3171 41.229 23.977-2.4952 46.571-6.7035 71.315-8.2472 4.7383-3.9791-6.8363-24.76 1.6586-26.797 11.093-2.1147 5.7969 16.149 8.2896 24.735 113.27-7.7715 237.36-8.4869 356.58-20.615 63.536-6.4639 137.83 0 208.96 0 75.81 0 153.6-1.6283 218.92 2.0618 32.337 1.8221 64.45-9.2236 94.538 10.306-18.533 0.30664-37.464 6.0162-56.391 4.1272-8.5012-0.85297-17.032-7.1934-23.213-8.2508-45.766-7.8278-108.63 0-169.16 0-173.34 0-323.49 9.3822-485.94 18.556-109.64 6.189-211.02 26.885-310.13 41.233-25.353 3.669-48.817 4.1518-72.974 10.306-22.187 5.6533-44.351 13.527-66.336 18.553-44.384 10.154-88.488 15.874-126.05 35.044-10.041 5.1282-26.422 9.2377-28.196 26.804 52.449-34.445 135.71-48.469 215.6-55.669 14.359 34.762 1.8222 91.555 4.9756 138.12h-21.561c-0.43304-29.295-8.28-64.674 4.9757-82.455-1.9088-7.257-9.406-7.553-11.61-14.436-3.6636 0.25378-0.70258 8.7407-1.6586 12.371-5.1554-1.8362-7.725-6.8904-13.265-8.2474 2.1173-14.546 12.245-19.138 23.217-22.676-0.006409-20.033-17.673-9.4243-28.196-8.2472-3.9043 2.3474 5.9348 24.389-1.6554 24.735-12.027 3.9581 2.0724-24.562-9.9514-20.611-10.593 5.6251-3.7246 23.956-3.3171 35.044 1.0876 29.718-0.15071 64.611 1.6586 92.764 1.5719 7.4473-6.5316 2.8758-9.9514 4.1235v20.618c-6.9582-5.0928-21.568-0.68005-26.534-8.2473-2.1366-13.65 17-0.85992 19.903-8.2471 3.1022-9.3541-6.5894-2.809-4.9725-10.306-3.516-16.251 7.5774-50.657-6.6375-53.604-10.474 9.8297 9.6916 48.983-6.631 53.604-7.6576-19.342-1.1678-56.275-3.3171-82.459 0.74745-5.7413-9.0371 1.6178-8.2928-4.1235v-32.986c-20.512-2.3121-10.667 50.52-9.9514 70.091 0.76668 20.96-0.59349 40.958 0 57.72-7.6127 1.9068-8.0137-5.1562-14.924-4.1165 3.0669 11.338 18.604 18.063 11.61 35.037-12.682 1.3357-4.7511-22.951-18.247-20.611 5.7841-33.44 1.5752-69.594 1.6618-107.19-17.343 14.172 3.0829 75.293-11.61 92.764-2.7942-33.715-4.4464-83.858 4.9757-109.27-5.2548-7.331-15.145-2.5624-21.558 0 16.04 37.571-1.3506 103.16 3.3139 146.37-10.58-5.7274-9.8809-6.3125-18.244 2.0582-6.3006-14.496 3.8432-14.105 11.61-16.487 0.47155-8.8323-5.9349-9.1143-11.61-10.313 13.654-23.572-4.4656-86.632 11.61-107.19-5.5371-3.3729-23.268-4.2399-26.534 2.0654-3.0188 11.303 6.9101 6.5273 6.6311 14.422-3.8914 32.961 6.9583 84.242-13.268 96.895-8.6938-25.616 0.93354-74-4.9725-103.08-19.454 5.8787-12.22 44.525-13.268 74.215-0.44592 12.632-3.0028 24.629-1.6586 35.044-9.4028 1.1068-12.858 2.4496-19.9-2.0583-1.1453 18.599 2.8038 30.874 1.6586 49.473 78.796-15.173 157.75-36.958 242.14-43.291 39.045-2.9254 79.037-8.0324 119.41-10.306 158.02-8.9205 323.4-13.009 479.3-28.862 86.406-8.7899 178.99 3.0206 271.99-2.0582 91.68-5.0118 183.52-3.3941 263.69-2.0654-3.4199-5.3607-10.721-5.914-14.924-10.306 1.1966-24.851-2.7332-43.333-1.6617-68.026 17.08 0.070557 7.4746 33.31 9.958 51.531 4.4561 12.424 12.011 9.4314 14.924 20.618 3.5641 13.7-10.314 29.236 3.3138 37.102-23.685 22.655-13.188 77.552 1.6619 101.01 6.6118-17.837-5.4088-39.065-4.9757-49.473 2.037-0.90234 3.4038-2.6364 3.3138-6.182 12.188-5.7766 27.387 1.364 33.171 10.306 0.76379 45.089 3.0381 88.306 3.3141 134-9.4927 15.68-34.124 12.551-56.385 12.364 3.702-11.201 19.11-7.856 31.509-8.2472 11.854-52.797-21.208-76.442-29.851-115.44-4.0841-18.433-7.5616-68.829 6.6278-74.208-2.8649-9.6571-6.8107-16.582-1.6553-26.804-468.01-0.4054-924.54 13.506-1335.1 84.517 22.72 12.864 45.128 0.96918 67.998-2.0583 23.23-3.077 47.197 0.69434 71.312-2.0654 69.15-7.9018 140.51-21.154 210.63-22.676-1.1164 57.734 2.8231 109.19 1.6585 166.98h-34.827c4.318-42.727-7.7635-105.84 13.265-127.81-12.742-23.565-21.808 8.991-28.196 18.553-16.842-30.811 33.925-50.28 39.806-18.553v-28.858c-16.117-0.80017-30.448 0.63434-44.778 2.0581-8.4533 5.9882-4.9084 26.881-8.2896 39.168-10.439-2.1393-2.5568-27.061-8.2928-35.044h-8.2896c-2.6788 49.582-3.2946 101.73-3.3171 154.61h-23.22v-82.455c-0.99445-5.3607 0.6673-7.419 4.9757-6.1891-6.9904-10.119-11.915-35.629 6.6343-41.226-16.011-11.779-26.733 4.3316-33.168 16.488-3.3749-19.349 15.248-27.241 29.851-30.92-7.9944-3.6971-27.333-3.7712-33.168 2.0654-3.4038 10.891-0.94318 29.056-4.9757 39.168-6.2075-8.7759-3.7149-28.369-4.9757-43.291-5.3832-1.1985-7.7154 1.4026-11.607 2.0581-4.6805 45.032-2.8937 98.107-4.9757 146.37h-19.9c3.5577-29.546-1.2415-64.438 3.3139-90.706 1.9376-11.151 10.68-18.592 4.9757-28.862-2.5312-6.478-12.717-3.4292-19.903-4.1165 2.929-11.952 18.754-12.544 26.537-12.371 1.203-17.298-18.995-8.0006-29.851-10.313-5.7906 7.9232 0.18927 30.473-8.2928 35.051-9.4156-3.1791 3.6668-22.091-3.3171-28.869-14.491-1.6672-7.7956 31.237-8.2928 45.356-1.171 33.091-4.1545 72.953-4.9726 103.08 175.56 8.3777 370.41 8.0182 548.95-2.0653 63.301-3.5738 131.17-0.59204 195.7-4.1167 123.15-6.7317 245.35-13.731 364.86-8.2543-245.3 20.555-498.88 12.826-754.61 26.8-145.19 7.9371-289.78-5.7838-431.2 6.189 133.62 10.235 267.75 21.016 411.3 28.858 81.693 4.4689 192.68-7.606 281.94 0-8.0938-0.6875 0.093018 5.0787 8.2897 2.0652-14.488 5.3291-25.132-4.342-36.485 0-156.05 14.655-326.09 22.972-489.25 8.2473-76.23-6.8833-160.25-6.4569-230.53-18.553-21.286-3.6688-43.017-14.813-64.681-14.429-15.293-29.028-0.62557-79.526 4.9757-113.38-3.439-7.4401-14.385 3.8276-16.586-2.0654-2.374-20.815 13.567-18.87 8.2928-43.291-1.8093-7.2886-8.1421 7.2886-9.9514 0-2.4638-15.426 8.8959-13.678 9.9514-24.742 1.5719-14.676-3.1792-29.186-1.6618-43.284 0.78275-7.2815 5.4826-12.068 6.6343-18.56 3.2433-18.31 4.3469-47.933 1.6586-63.902-1.3185-7.8419-9.4028-15.346-9.9514-24.742-0.4748-8.1698 5.0046-14.916 6.6342-24.735 3.2048-19.304 0.65125-54.837 1.6586-82.458 0.51969-14.196 2.9899-26.571 1.6586-35.047-1.9633-12.505-10.147-17.348-6.6311-28.862 2.5216-8.279 9.9963-10.517 18.241-14.429-1.3378-7.2675-10.121-5.2831-9.9482-14.429 3.7085-32.503-2.8905-77.81 9.9482-98.953-8.2126-10.401-7.6095-31.77-8.2896-51.538 2.5761-8.6949-9.2071 0.45117-6.6342-8.2437 16.082-49.935 49.096-86.632 79.608-121.63 30.781-35.308 69.849-58.429 106.14-86.579 21.561 4.3104 31.609-14.99 49.754-8.2438 8.7002-0.17618 6.4802-13.936 14.924-14.433 19.438 3.3236 26.155 22.462 41.461 30.92 15.79-8.5468 45.137-0.23961 51.416-20.615 34.538 6.5132 41.673-21.041 38.144-61.844 59.051-30.631 127.18-42.079 197.36-55.658 151.78-29.366 321.55-49.73 500.86-32.982 5.319 13.576-3.484 16.167-8.2898 22.673 5.5629 12.329 15.376 19.37 24.875 26.8 19.518 55.447 34.236 116.86 51.409 175.23 13.169 10.429 29.761 16.6 38.147 32.986 7.9528 81.549 11.424 171.52 36.485 241.19h51.409c4.228-10.556 3.2463-27.583 3.3203-43.291 15.113-1.6036 27.169 0.59207 34.824 8.2508 92.896 2.0371 163.14 32.228 217.27 82.458 18.17 35.703 14.102 101.29 16.586 169.04 3.3204 90.963 4.5488 176.6 8.2896 263.87-20.49 13.009-45.458 20.46-69.657 28.862-3.6765 2.9817-4.3855 9.6641-4.9755 16.487-15.174-10.45-9.9515-39.587-9.9515-65.968v-78.338c-0.97192-8.0676 6.8235-5.2587 8.2961-10.306 0.59668-9.6713-8.71-7.0418-8.2961-16.494-1.8671-9.1883 12.069 1.251 8.2961-10.306-1.3156-11.426-12.714-10.312-16.592-18.553-1.3538-13.432-2.6434-26.945-4.9756-39.168h-34.824c-16.04-13.044-8.1261-55.863-9.9514-86.582-0.78284-10.884 4.4624 4.7897 4.9758-2.0654 2.9255-15.317-6.9618-14.704-8.2898-24.735-3.2081-30.455 6.2205-49.755 1.6553-72.153-4.6612-22.881-31.753-30.081-29.851-57.72-16.297-1.7235-30.281-6.3441-48.102-6.1855-5.9895 1.9526-2.3066-8.1238-3.3076-12.367h-24.882c0.51306-7.5106-0.26306-13.418-1.6619-18.553h-16.586c-5.0624 3.8065 1.9183 9.791 0 16.487-17.593-9.0437-45.445-5.3466-69.657-6.1819-11.116-30.155-14.099-70.426-33.171-90.709 1.1228-4.7898 8.7098-1.5508 6.6406-10.306-2.4573-29.937-2.1301-63.321-4.9821-92.768-39.588-1.1103-74.995 2.9852-112.77 4.1236 1.3922-2.3931 2.188-5.5264 1.6554-10.306 10.34-11.169 34.349-6.1855 53.071-6.1855h56.385c-2.9193-33.475-10.25-61.463-38.141-63.906-11.296-50.03-38.497-95.041-49.757-146.36-1.9601-8.938-0.40747-19.938-3.314-28.858-6.3583-19.501-31.818-23.794-26.534-51.538-20.852-13.573-67.77-8.2473-106.15-8.2473-205.73 0-408.37 29.757-570.51 82.458v41.229c12.296 0.1657 24.702 0.46878 34.827-2.0618 7.016 7.4789 11.783 6.3476 21.561 8.2473 2.358 10.492-8.3538 4.7369-13.269 6.1819-2.8295 66.412 6.1659 149.57-16.586 185.54-19.393-0.056396-34.198 5.5933-51.412 8.2473 4.549-21.15 37.56-6.915 49.754-18.556 3.0348-34.018 9.9418-63.229 8.2896-103.07-5.0431-7.4613-17.769 3.8417-21.558-2.0583-4.5939-18.764 12.322-10.795 21.558-12.371 1.2063-22.112-2.7236-37.842-1.6586-59.782-32.02-13.678-44.714 14.503-67.998 18.553v173.16c-6.6696-1.4204-9.467 1.9772-14.927 2.0618-0.009613-34.367-0.57428-69.432 1.6585-101.01-2.528-8.286-13.615 6.8798-13.265-4.1237-1.6522-11.673 6.9776-10.57 13.265-12.367v-47.418c-19.938-10.189-36.155 8.5926-51.409 6.189-16.281-2.5728-19.402-24.492-34.83-30.924-6.2076 1.216-5.1329 11.486-9.9514 14.429-31.404-1.794-52.907 11.268-76.291 26.8-32.302 21.454-58.547 47.115-81.267 78.335 14.096 4.4619 13.32-9.5514 19.903-14.433 8.6168-0.98679 9.8519 14.5 16.582 4.1237 10.096-5.4207-12.348-9.6289-1.6586-16.491-1.3313-7.842 7.8405-2.6223 11.61-4.1236 3.9684-2.6293-1.6554-17.175 8.2896-12.371 8.5046 3.6126-0.68971 17.45 1.6618 26.8 17.978-23.008 51.996-26.071 74.632-43.295-2.3066 61.735 16.422 143.31-8.2928 183.47-14.221 1.5614-24.872 7.56-36.485 12.367-1.7163-11.102 17.474-13.978 28.192-16.491 0.55501-33.028-12.941-52.666-4.9757-90.702 5.3414 0.45117 7.0193-3.6478 13.265-2.0618 2.313-30.917-11.52-39.224-3.3139-68.029-15.463 7.7996-24.417 10.112-38.147 12.367-9.22 53.879 13.644 137.46-11.61 173.16-10.843 2.3297-19.162 7.7927-28.196 12.367-7.8758-1.8927-13.346-6.7706-23.22-6.182 2.005-27.864-10.086-66.722 1.6618-86.582 6.9422 0.30658 0.65765 17.048 6.6343 18.556 4.3309-4.2328 2.5087-16.121 4.9725-22.676-4.4945-6.0938-10.465-10.355-9.9514-22.676-8.9954 1.1842-12.604 9.0719-19.9 12.371-2.1302 35.375 4.0357 83.167 1.6586 117.5-1.1132 16.075-2.8937 33.905-14.927 39.171-6.6664-13.157 6.9903-18.75 9.9514-26.8-2.9386-0.47232-8.3024 2.0794-6.6311-4.1236 1.2094-20.742-2.7204-35.104-1.6586-55.662 1.989-11.398-8.5848-7.1899-8.2896-16.491 6.2686-5.988 9.2938-26.885 4.9757-39.171-11.385 5.9211-9.2906 29.253-9.9514 47.415-1.1196 30.6 4.3277 68.794-9.9514 82.458-22.854-12.537-19.614-69.46-1.6586-84.52-18.482-0.9798-16.053 24.026-26.537 32.982 8.4468 20.879 7.247 68.332-3.3139 84.52 13.326-8.1697 26.017-17.132 38.144-26.797 0.42024 4.0249-9.5376 12.822-14.924 16.491 5.0531 11-2.4249 20.301-9.9382 30.952zm1486 181.41v26.804c4.8633-0.53558 5.1007 4.6595 9.9576 4.1166 0.23108-14.718 1.62-30.874-9.9576-30.92zm-14.917-142.24c0.60278 13.125-2.9517 21.073-1.6621 35.04 7.6321 0.13391 10.763 5.8611 16.58 8.2508 1.854-22.916-4.5686-35.555-14.917-43.291zm-6.6377 156.67v45.349c0 13.368-4.6002 35.347 6.6342 37.109-0.50049-24.009 12.758-73.15-6.6342-82.459zm-24.882-177.29c-0.19556 13.989 2.8744 23.917 1.6621 39.168 5.9476 2.9147 9.4121 8.9169 14.924 12.371 0.89197-25.158 2.8971-51.693-16.586-51.538zm-6.6277 146.37c1.2286 37.641 1.7804 76.122 3.3138 113.38 5.4376 1.4803 14.279 18.415 16.586 10.306-7.7186-39.886 11.642-113.42-19.9-123.69zm-38.147-76.277c3.8529 15.131 0.56458 39.16 1.6554 57.717 9.098-0.31 17.869-0.2149 24.882 2.0654v-57.72c-9.6625 1.6459-19.254-7.5988-26.537-2.0619zm24.875 82.459c-9.5857 1.6178-14.18-2.9887-23.22-2.0583v88.64h23.22c-0.2052-27.872 0.28894-65.428 0-86.582zm-28.189-175.22c2.2229 13.034 2.2809 28.763 3.3137 43.291 7.7891 2.6892 10.866 11.232 18.241 14.429v-47.415c-6.7432-3.9861-15.415-5.5828-21.555-10.306zm-33.171-16.494c0.11853 8.7794 2.7686 14.419 1.6553 24.742 6.9099 1.0327 9.682 7.2111 16.586 8.2437 3.3908-22.761-4.0038-32.133-18.241-32.986zm-1374.9 179.35c-0.99772-1.251 11.478-2.1004 9.9514 4.1166 3.4551 13.918-13.169 2.876-8.2928 18.553 66.298-35.093 154.22-61.181 238.82-80.393-4.3148-1.2089-10.086-25.246 0-24.738 3.808 4.1976 0.60312 17.118 1.6618 24.738 22.633-4.1624 44.278-9.5584 66.339-14.429v-20.618c-17.291-7.419-22.306 21.295-34.827 6.1855 9.6242-8.6526 26.742-7.9935 21.561-35.044 32.854 4.5078 20.602-41.085 21.561-72.153h-16.586c-3.6251 7.116-4.3148 17.066-4.9757 22.68-12.236-3.6583-16.958-16.995-13.269-35.044 7.6384-4.9871 19.21-8.8218 29.854-4.1236 0.035248-4.8602-2.8584-6.0727-1.6586-12.374-18.353-6.7634-36.72 3.6584-54.733 4.1236-3.532 38.216-4.4624 79.667-6.6311 119.57-7.2566 1.9772-10.904 8.4376-21.561 6.1854v-53.6h-13.269c-5.3735 16.681-0.48117 46.132-13.268 53.6-2.2296-17.911-1.6907-50.188 8.2928-59.786 6.4996-2.2239 20.426 4.7756 21.558-4.1237 1.3314-7.8349-7.8405-2.6186-11.607-4.1201-0.93997-6.3899 0.44913-15.677-4.9789-16.498-3.5257 7.9935-6.6888 16.428-11.607 22.684-0.92072-18.789 2.5407-43.013-4.9789-53.6h-4.9725c-6.4514 38.022-4.6742 86.272-9.9514 125.75-6.2493-1.586-7.9271 2.5129-13.265 2.0618 0.99129-20.068-2.6948-45.952 3.3139-59.786-2.5408-10.588-14.872-8.9979-23.217-12.371 1.5976-9.6923-1.0651-24.685 4.9757-28.858 5.1297 0.49695-2.5953 16.963 4.9757 14.433 5.7232-10.203 26.736-15.864 18.244-30.924-9.7589-1.7834-25.767 6.4321-38.147 8.2508-2.1237 54.428 9.0788 116.79-8.2928 154.61-4.5939-6.6577-16.133-4.6805-23.217-8.2472-0.18927-11.229 14.164-4.3774 16.586-12.364-7.539-25.45 1.604-77.281-3.3172-111.32-15.546 12.283-2.7461 59.807-16.582 74.215-1.0971-30.913 1.9024-56.733 3.3172-84.524-13.143-3.958-11.886 9.9708-18.244 14.436-10.699 5.9423-19.887 13.76-31.51 18.556v16.491c-1.187 5.5969 7.8213-1.4768 6.6343 4.1271 1.0907 30.208-2.8423 54.178-1.6586 84.513-5.1297-0.070496-10.285 10.429-13.268 6.189-1.8446-34.131 2.082-75.431-6.6343-101.02-2.6338 7.0384-11.408 6.4322-14.924 12.371 3.3235 3.4294 7.709 5.5334 8.2896 12.367 1.3955 13.372-1.0972 30.05-1.6586 45.349-0.57103 15.659 4.6388 35.745-8.2928 39.175-2.7621-24.742 8.0907-66.405-11.61-70.091-1.0843 28.834 2.8488 51.429 1.6586 80.397h-14.927c0.14117 4.4864-4.5458 13.319-1.665 14.418zm233.85-216.46c-10.349-1.1807-16.204 3.2214-24.875 4.1201-1.1421 8.2966 1.588 11.768 1.6586 18.556 5.4216-9.0649 19.646-7.1899 29.851-10.309-3.0316-3.1051-3.901-8.8923-6.6342-12.367zm-89.556 222.64c1.9088 9.9954-4.0068 29.718 3.3172 32.986 8.9794-6.0233 10.25-21.623 23.22-22.684v-14.429c-7.5582 2.9782-18.408 1.8608-26.537 4.1271zm1.6586 212.33v18.553c7.7924 2.1323 6.384-7.1793 14.924-4.1166-3.208 9.0649-11.559 11.744-16.582 18.553v49.473c0 15.709 3.917 40.56-4.9757 45.356-3.8689-39.174-0.55177-87.273-1.6585-129.88-5.9702-0.54285-7.9945 3.8134-13.269 4.1306 0.89185 44.243 2.4221 87.692 3.3171 131.94-5.0398-1.2935-14.285 2.6433-16.582-2.0653v-86.575c-4.5009-1.2794-13.163 2.6152-14.927-2.0654 2.6659-13.182 3.978-28.03 14.927-30.92-3.5642-7.9372-17.837-2.5693-26.534-4.1237 1.1388 44.712-2.8007 83.1-1.6618 127.81-5.0398-1.2864-14.286 2.6434-16.586-2.0584v-117.51h-14.924c-1.1036 38.487 2.2071 82.455-1.6586 117.51-2.1398 2.8444-7.2053 2.0442-11.61 2.0584v-121.62h-18.244c2.3964 45.804 3.4904 93.233 6.6343 138.12 40.643 1.3075 88.78-2.9183 132.68-4.1237 1.1774-38.568-2.7589-70.786-1.6586-109.26 4.6774-12.734 13.262-20.625 13.268-39.168-8.2929-0.006775-16.586-0.006775-24.878-0.006775zm-16.586-587.52c-7.2438 11.61-22.421 13.365-28.196 26.8 1.2094 24.604 3.686 47.647 3.3171 74.218 7.7731 2.7032 18.196 2.1182 28.192 2.0583-2.1686-33.038 4.3694-76.897-3.3139-103.08zm1.6554-2.0583c3.8465-9.65 0.57106-28.153 1.6586-41.229-18.758-2.0195-26.855 9.22-38.144 16.491 9.0467 4.5536 8.896 20.544 8.2896 37.106 10.131-3.2179 19.162-7.7997 28.196-12.367zm-24.875 181.41h13.272v-8.2508c-5.3542 1.6001-9.8038 4.3139-13.272 8.2508zm-92.873 253.56c-5.0976 0.53583-7.4588 4.4691-11.61 6.189 1.2736 24.527 0.59028 51.482 4.9757 72.15 16.797-12.357 3.5289-51.485 6.6343-78.338zm-1.6586 247.38c-0.79237-19.177 3.7438-45.321-8.2896-53.604-5.1201 34.55 2.0532 71.652 0 109.26h11.607c-0.67369-16.135-2.5151-36.186-3.3172-55.655z"/>
  <path d="m765.76 670.72c18.604-23.177 63.484-21.087 72.97 10.306v109.26c-23.634-1.2055-43.119 2.7524-64.681 4.1236-0.95923-24.224-2.1943-48.123-3.3204-72.15 0.39459-6.3933 5.89-6.4356 9.9514-8.2472-6.8427-5.2374-7.5389-18.112-6.6279-32.986-2.9385-5.4877-7.0191 4.8672-9.9513 6.189-3.0444-1.942 2.5568-10.404 1.6586-16.495z"/>
  <path d="m667.91 479c-37.165-52.085 62.506-75.706 61.361-16.491-21.693-35.453-59.192-13.072-61.361 30.92h-16.586v-14.433c5.5306 0.00354 11.058 0.00354 16.586 0.00354z"/>
  <path d="m725.96 1054.2c-22.671-1.3711-49.75 2.7385-69.657-2.0654 0.86932-7.849 9.7654-5.7272 16.586-6.1819 1.2287-28.326-2.6723-50.273-1.6617-78.346-2.5537-8.6737 8.5847-0.32434 8.2928-6.182 2.6563-11.543-4.6324-10.732-8.2928-14.429 0.038391-10.263 2.5824-17.407 4.9789-24.742-9.5184 0.54272-12.601 9.072-18.244 14.436 2.7941-20.361 19.909-40.828 41.461-35.044 20.426 5.4734 18.42 35.576 28.196 55.655 1.0939 34.353-2.8425 62.443-1.6586 96.898z"/>
  <path d="m44.321 693.39h14.927c1.1902-28.968-2.7429-51.563-1.6586-80.397 19.704 3.6866 8.8478 45.353 11.61 70.091 12.932-3.4293 7.7218-23.515 8.2928-39.174 0.55819-15.3 3.0508-31.978 1.6586-45.349-0.58386-6.8304-4.9661-8.938-8.2896-12.367 3.516-5.9387 12.293-5.3325 14.924-12.371 8.7195 25.584 4.7928 66.884 6.6343 101.02 2.9835 4.2399 8.1388-6.2559 13.268-6.189-1.187-30.335 2.7461-54.305 1.6586-84.513 1.187-5.6039-7.8212 1.4697-6.6342-4.1271v-16.491c11.623-4.7933 20.811-12.614 31.51-18.556 6.3584-4.4655 5.1009-18.394 18.244-14.436-1.4148 27.794-4.4143 53.614-3.3172 84.524 13.836-14.408 1.0362-61.928 16.582-74.215 4.9211 34.039-4.2218 85.87 3.3171 111.32-2.4221 7.9865-16.775 1.1384-16.586 12.364 7.0834 3.5668 18.626 1.5895 23.217 8.2472 17.372-37.821 6.1691-100.18 8.2928-154.61 12.38-1.8187 28.388-10.034 38.147-8.2508 8.4949 15.06-12.518 20.724-18.244 30.924-7.5678 2.5341 0.15399-13.936-4.9757-14.433-6.0408 4.1764-3.3781 19.166-4.9757 28.858 8.3441 3.3729 20.676 1.7834 23.217 12.371-6.0119 13.834-2.3227 39.717-3.314 59.786 5.3414 0.45117 7.016-3.6478 13.265-2.0618 5.2804-39.481 3.5-87.731 9.9514-125.75h4.9725c7.5165 10.588 4.0582 34.811 4.9789 53.6 4.9179-6.2524 8.0843-14.69 11.607-22.684 5.428 0.81763 4.0389 10.105 4.9788 16.498 3.7663 1.5014 12.938-3.7148 11.607 4.1202-1.1324 8.8992-15.055 1.8997-21.558 4.1236-9.9835 9.5972-10.522 41.874-8.2928 59.786 12.784-7.4683 7.895-36.919 13.268-53.6h13.269v53.6c10.657 2.2521 14.302-4.2082 21.561-6.1854 2.1719-39.901 3.1022-81.352 6.631-119.57 18.01-0.46524 36.379-10.887 54.733-4.1236-1.1998 6.3017 1.6939 7.5142 1.6586 12.374-10.644-4.6981-22.216-0.8635-29.854 4.1236-3.686 18.049 1.033 31.385 13.268 35.044 0.66086-5.6145 1.3506-15.564 4.9758-22.68h16.586c-0.95593 31.065 11.296 76.661-21.561 72.153 5.1842 27.054-11.934 26.391-21.561 35.044 12.521 15.11 17.538-13.604 34.827-6.1854v20.618c-22.062 4.8708-43.707 10.267-66.34 14.429-1.0586-7.6164 2.1462-20.537-1.6617-24.738-10.086-0.51111-4.3148 23.529 0 24.738-84.606 19.212-172.52 45.3-238.82 80.393-4.8763-15.673 11.751-4.631 8.2928-18.553 1.527-6.2172-10.949-5.3678-9.9514-4.1166-2.8745-1.0817 1.8125-9.914 1.6649-14.418zm263.7-156.67c-0.57742 17.834-2.5023 33.997-3.3171 51.535 3.9042 0.045837 4.8827-3.5526 9.9514-2.0618 1.0844-12.399-2.1815-30.201 1.6585-39.168 5.9413 0.17627 9.5825 3.2038 14.927 4.1201v-12.364c-9.5921 1.6107-14.176-2.9958-23.22-2.0618zm3.3203-39.171h-3.3171c-1.989 3.9544-4.4881 26.109 1.6585 26.796h3.3171c1.989-3.9545 4.4881-26.113-1.6586-26.796zm-63.026 127.81v14.429c7.0673-0.15155 11.6-3.4505 19.903-2.0619-1.203-6.3016 2.8616-6.0655 1.6586-12.367-7.186 6.1e-5 -14.372 6.1e-5 -21.561 6.1e-5zm-51.409 16.491c-1.203 6.3053 2.8584 6.0656 1.6554 12.367 7.6095-0.16571 11.267-5.234 19.903-4.1201v-12.371c-9.4156-1.3922-13.599 3.7112-21.558 4.1237zm0-74.215c-5.6494 3.158-4.61 17.058-4.9757 28.858-0.34647 11.166-3.346 30.451 4.9757 30.924 7.0321-13.248-2.9289-47.616 9.9514-53.6-4.0518-1.142-3.5385-7.9724-9.9514-6.182zm-82.925 0c11.1 11.278 4.5266 36.785 4.9725 57.724 0.49723 6.2418 6.9775-7.264 8.2928 0 0.70256 13.763-6.3359 31.287 4.9724 35.047-4.8121 13.939-23.996 10.024-26.534 26.8 8.389-1.942 13.573-7.8666 24.878-6.189 17.176-28.125 11.53-84.616 13.265-131.93-13.349 1.9454-21.148 10.81-29.848 18.549zm-33.168 123.68c5.5435 1.364 8.11 6.4146 13.265 8.2543-0.81166-6.5061 2.9899-7.2815 1.6586-14.436-6.0472 0.72955-10.336 3.6443-14.924 6.182zm-19.903 10.313c4.2988 2.8971 7.6576 6.9749 11.61 10.306 0.49403-5.6851 4.363-17.774 1.6554-20.618 0.34649 9.3646-8.9601 6.7353-13.265 10.313z" fill="#fff"/>
 </g>
</svg>
