<?xml version="1.0" standalone="no"?>
<!DOCTYPE svg PUBLIC "-//W3C//DTD SVG 20010904//EN"
 "http://www.w3.org/TR/2001/REC-SVG-20010904/DTD/svg10.dtd">
<svg version="1.0" xmlns="http://www.w3.org/2000/svg"
 width="880.000000pt" height="1060.000000pt" viewBox="0 0 880.000000 1060.000000"
 preserveAspectRatio="xMidYMid meet">

<g transform="translate(0.000000,1060.000000) scale(0.100000,-0.100000)"
fill="#000000" stroke="none">
<path d="M4310 10194 c-14 -2 -59 -9 -100 -15 -245 -36 -492 -168 -680 -366
-137 -143 -218 -276 -280 -460 -79 -238 -78 -493 4 -738 127 -377 383 -636
781 -786 l100 -38 6 -68 c4 -37 7 -134 8 -214 l1 -146 -67 -33 c-38 -17 -117
-60 -178 -95 -60 -34 -204 -116 -320 -182 -251 -143 -506 -290 -670 -386 -66
-39 -145 -84 -175 -102 -127 -73 -500 -291 -695 -405 -115 -68 -235 -138 -265
-155 -277 -160 -987 -586 -1059 -635 -100 -68 -148 -132 -241 -320 l-61 -121
-2 -577 c-2 -466 1 -588 12 -632 39 -153 120 -306 217 -410 57 -61 205 -153
909 -565 522 -306 1720 -1000 1925 -1115 36 -20 169 -96 296 -168 391 -221
404 -225 629 -225 159 0 240 15 334 63 52 26 1125 637 1606 915 786 454 859
496 1315 768 425 253 482 294 552 392 32 44 85 133 118 197 l60 116 0 622 0
621 -70 137 c-87 173 -142 241 -245 310 -120 79 -617 375 -1515 902 -113 66
-230 134 -725 422 -580 336 -1026 589 -1110 629 l-65 32 1 171 c0 94 4 191 7
215 l7 43 105 37 c203 72 347 166 499 327 344 365 431 853 233 1312 -155 358
-500 634 -886 707 -82 16 -271 27 -316 19z m-151 -255 c183 -29 336 -186 388
-396 22 -88 8 -179 -43 -282 -71 -144 -210 -247 -368 -274 -193 -33 -401 87
-501 288 -39 79 -40 82 -40 190 0 106 1 113 37 189 68 141 218 263 354 285 70
12 101 12 173 0z m-23 -3819 c7 -20 15 -147 19 -295 8 -315 13 -350 63 -400
59 -59 106 -79 187 -79 82 0 128 20 188 81 49 51 54 87 61 413 3 143 10 259
17 278 20 59 72 54 304 -25 206 -70 357 -159 501 -295 100 -95 186 -220 221
-320 24 -68 25 -80 21 -257 l-3 -186 -38 -80 c-43 -90 -123 -200 -195 -267
-179 -168 -443 -302 -707 -360 -84 -18 -656 -18 -740 0 -288 64 -587 224 -748
403 -69 76 -134 172 -168 249 -23 52 -24 65 -24 260 0 197 1 207 26 266 83
197 293 398 543 519 137 67 350 135 411 132 48 -2 51 -4 61 -37z m-2143 -605
c236 -50 361 -231 272 -394 -85 -155 -271 -226 -493 -189 -109 19 -182 52
-251 114 -121 109 -122 245 -2 357 118 110 290 151 474 112z"/>
</g>
</svg>
