<?xml version="1.0" standalone="no"?>
<!DOCTYPE svg PUBLIC "-//W3C//DTD SVG 20010904//EN"
 "http://www.w3.org/TR/2001/REC-SVG-20010904/DTD/svg10.dtd">
<svg version="1.0" xmlns="http://www.w3.org/2000/svg"
 width="391.000000pt" height="396.000000pt" viewBox="0 0 391.000000 396.000000"
 preserveAspectRatio="xMidYMid meet">

<g transform="translate(0.000000,396.000000) scale(0.100000,-0.100000)"
fill="#000000" stroke="none">
<path d="M1770 3918 c-47 -4 -134 -19 -195 -31 l-110 -22 -3 -353 -2 -352
1010 0 c555 0 1010 3 1010 6 0 12 -142 174 -203 231 -170 158 -295 245 -502
344 -316 151 -665 213 -1005 177z"/>
<path d="M935 3628 c-88 -56 -196 -142 -292 -231 -61 -57 -203 -219 -203 -231
0 -3 133 -6 295 -6 l295 0 0 260 c0 143 -3 260 -7 260 -5 0 -44 -23 -88 -52z"/>
<path d="M179 2703 c-98 -226 -154 -595 -131 -866 41 -474 212 -865 527 -1205
259 -279 626 -483 1010 -561 402 -83 817 -31 1190 148 167 80 276 150 407 260
91 77 217 204 260 263 l19 28 -1085 0 c-851 0 -1091 3 -1109 13 -21 12 -74 51
-110 82 -9 8 -21 15 -26 15 -15 0 -53 59 -76 115 -19 48 -19 79 -22 903 l-3
852 -415 0 -416 0 -20 -47z"/>
<path d="M1462 2053 l3 -698 28 -67 c51 -120 -70 -108 1159 -106 l1060 3 25
60 c105 254 158 600 134 878 -17 207 -70 442 -130 580 l-20 47 -1131 0 -1131
0 3 -697z"/>
</g>
</svg>
